<mxfile host="app.diagrams.net" agent="Mozilla/5.0 (Windows NT 10.0; Win64; x64) AppleWebKit/537.36 (KHTML, like Gecko) Chrome/122.0.0.0 Safari/537.36" version="27.1.6">
  <diagram name="Page-1" id="2ca16b54-16f6-2749-3443-fa8db7711227">
    <mxGraphModel dx="5320" dy="893" grid="1" gridSize="10" guides="1" tooltips="1" connect="1" arrows="1" fold="1" page="1" pageScale="1" pageWidth="4681" pageHeight="3300" background="none" math="0" shadow="0">
      <root>
        <mxCell id="0" />
        <mxCell id="1" parent="0" />
        <mxCell id="eg7fZ7Qx4ifohQcsQK5a-2" value="LogFile" style="swimlane;fontStyle=1;align=center;verticalAlign=top;childLayout=stackLayout;horizontal=1;startSize=26;horizontalStack=0;resizeParent=1;resizeParentMax=0;resizeLast=0;collapsible=1;marginBottom=0;whiteSpace=wrap;html=1;" parent="1" vertex="1">
          <mxGeometry x="110" y="144" width="160" height="86" as="geometry">
            <mxRectangle x="110" y="144" width="80" height="30" as="alternateBounds" />
          </mxGeometry>
        </mxCell>
        <mxCell id="eg7fZ7Qx4ifohQcsQK5a-3" value="unique_ptr&amp;lt;AppendFile&amp;gt;&amp;nbsp;" style="text;strokeColor=none;fillColor=none;align=left;verticalAlign=top;spacingLeft=4;spacingRight=4;overflow=hidden;rotatable=0;points=[[0,0.5],[1,0.5]];portConstraint=eastwest;whiteSpace=wrap;html=1;" parent="eg7fZ7Qx4ifohQcsQK5a-2" vertex="1">
          <mxGeometry y="26" width="160" height="26" as="geometry" />
        </mxCell>
        <mxCell id="eg7fZ7Qx4ifohQcsQK5a-4" value="" style="line;strokeWidth=1;fillColor=none;align=left;verticalAlign=middle;spacingTop=-1;spacingLeft=3;spacingRight=3;rotatable=0;labelPosition=right;points=[];portConstraint=eastwest;strokeColor=inherit;" parent="eg7fZ7Qx4ifohQcsQK5a-2" vertex="1">
          <mxGeometry y="52" width="160" height="8" as="geometry" />
        </mxCell>
        <mxCell id="eg7fZ7Qx4ifohQcsQK5a-5" value="Append()" style="text;strokeColor=none;fillColor=none;align=left;verticalAlign=top;spacingLeft=4;spacingRight=4;overflow=hidden;rotatable=0;points=[[0,0.5],[1,0.5]];portConstraint=eastwest;whiteSpace=wrap;html=1;" parent="eg7fZ7Qx4ifohQcsQK5a-2" vertex="1">
          <mxGeometry y="60" width="160" height="26" as="geometry" />
        </mxCell>
        <mxCell id="eg7fZ7Qx4ifohQcsQK5a-7" value="提供日志回滚操作" style="text;strokeColor=none;fillColor=none;align=left;verticalAlign=middle;spacingLeft=4;spacingRight=4;overflow=hidden;points=[[0,0.5],[1,0.5]];portConstraint=eastwest;rotatable=0;whiteSpace=wrap;html=1;fontStyle=1;fontFamily=Lucida Console;" parent="1" vertex="1">
          <mxGeometry x="105" y="110" width="170" height="30" as="geometry" />
        </mxCell>
        <mxCell id="eg7fZ7Qx4ifohQcsQK5a-8" value="AppendFile" style="swimlane;fontStyle=1;align=center;verticalAlign=top;childLayout=stackLayout;horizontal=1;startSize=26;horizontalStack=0;resizeParent=1;resizeParentMax=0;resizeLast=0;collapsible=1;marginBottom=0;whiteSpace=wrap;html=1;" parent="1" vertex="1">
          <mxGeometry x="350" y="210" width="160" height="100" as="geometry">
            <mxRectangle x="110" y="144" width="80" height="30" as="alternateBounds" />
          </mxGeometry>
        </mxCell>
        <mxCell id="eg7fZ7Qx4ifohQcsQK5a-9" value="FILE* fp_" style="text;strokeColor=none;fillColor=none;align=left;verticalAlign=top;spacingLeft=4;spacingRight=4;overflow=hidden;rotatable=0;points=[[0,0.5],[1,0.5]];portConstraint=eastwest;whiteSpace=wrap;html=1;" parent="eg7fZ7Qx4ifohQcsQK5a-8" vertex="1">
          <mxGeometry y="26" width="160" height="26" as="geometry" />
        </mxCell>
        <mxCell id="eg7fZ7Qx4ifohQcsQK5a-10" value="" style="line;strokeWidth=1;fillColor=none;align=left;verticalAlign=middle;spacingTop=-1;spacingLeft=3;spacingRight=3;rotatable=0;labelPosition=right;points=[];portConstraint=eastwest;strokeColor=inherit;" parent="eg7fZ7Qx4ifohQcsQK5a-8" vertex="1">
          <mxGeometry y="52" width="160" height="8" as="geometry" />
        </mxCell>
        <mxCell id="eg7fZ7Qx4ifohQcsQK5a-11" value="Append()&lt;div&gt;Flush()&lt;/div&gt;" style="text;strokeColor=none;fillColor=none;align=left;verticalAlign=top;spacingLeft=4;spacingRight=4;overflow=hidden;rotatable=0;points=[[0,0.5],[1,0.5]];portConstraint=eastwest;whiteSpace=wrap;html=1;" parent="eg7fZ7Qx4ifohQcsQK5a-8" vertex="1">
          <mxGeometry y="60" width="160" height="40" as="geometry" />
        </mxCell>
        <mxCell id="eg7fZ7Qx4ifohQcsQK5a-14" style="edgeStyle=orthogonalEdgeStyle;rounded=0;orthogonalLoop=1;jettySize=auto;html=1;entryX=-0.001;entryY=0.074;entryDx=0;entryDy=0;entryPerimeter=0;" parent="1" source="eg7fZ7Qx4ifohQcsQK5a-3" target="eg7fZ7Qx4ifohQcsQK5a-8" edge="1">
          <mxGeometry relative="1" as="geometry" />
        </mxCell>
        <mxCell id="eg7fZ7Qx4ifohQcsQK5a-15" value="&lt;b&gt;真正操作写文件的操作&lt;/b&gt;" style="text;strokeColor=none;fillColor=none;align=left;verticalAlign=middle;spacingLeft=4;spacingRight=4;overflow=hidden;points=[[0,0.5],[1,0.5]];portConstraint=eastwest;rotatable=0;whiteSpace=wrap;html=1;fontFamily=Lucida Console;" parent="1" vertex="1">
          <mxGeometry x="350" y="180" width="170" height="30" as="geometry" />
        </mxCell>
        <mxCell id="eg7fZ7Qx4ifohQcsQK5a-16" value="AsyncLogger" style="swimlane;fontStyle=1;align=center;verticalAlign=top;childLayout=stackLayout;horizontal=1;startSize=26;horizontalStack=0;resizeParent=1;resizeParentMax=0;resizeLast=0;collapsible=1;marginBottom=0;whiteSpace=wrap;html=1;" parent="1" vertex="1">
          <mxGeometry x="-114.12" y="340" width="160" height="150" as="geometry">
            <mxRectangle x="110" y="144" width="80" height="30" as="alternateBounds" />
          </mxGeometry>
        </mxCell>
        <mxCell id="eg7fZ7Qx4ifohQcsQK5a-17" value="&lt;div&gt;thread thread_&lt;br&gt;&lt;/div&gt;" style="text;strokeColor=none;fillColor=none;align=left;verticalAlign=top;spacingLeft=4;spacingRight=4;overflow=hidden;rotatable=0;points=[[0,0.5],[1,0.5]];portConstraint=eastwest;whiteSpace=wrap;html=1;" parent="eg7fZ7Qx4ifohQcsQK5a-16" vertex="1">
          <mxGeometry y="26" width="160" height="24" as="geometry" />
        </mxCell>
        <mxCell id="eg7fZ7Qx4ifohQcsQK5a-21" value="&lt;span style=&quot;background-color: transparent;&quot;&gt;vector&amp;lt;unique_ptr&amp;lt;Buffer&amp;gt;&amp;gt;&lt;/span&gt;" style="text;strokeColor=none;fillColor=none;align=left;verticalAlign=top;spacingLeft=4;spacingRight=4;overflow=hidden;rotatable=0;points=[[0,0.5],[1,0.5]];portConstraint=eastwest;whiteSpace=wrap;html=1;" parent="eg7fZ7Qx4ifohQcsQK5a-16" vertex="1">
          <mxGeometry y="50" width="160" height="30" as="geometry" />
        </mxCell>
        <mxCell id="eg7fZ7Qx4ifohQcsQK5a-18" value="" style="line;strokeWidth=1;fillColor=none;align=left;verticalAlign=middle;spacingTop=-1;spacingLeft=3;spacingRight=3;rotatable=0;labelPosition=right;points=[];portConstraint=eastwest;strokeColor=inherit;" parent="eg7fZ7Qx4ifohQcsQK5a-16" vertex="1">
          <mxGeometry y="80" width="160" height="8" as="geometry" />
        </mxCell>
        <mxCell id="eg7fZ7Qx4ifohQcsQK5a-32" style="edgeStyle=orthogonalEdgeStyle;rounded=0;orthogonalLoop=1;jettySize=auto;html=1;entryX=0;entryY=0.5;entryDx=0;entryDy=0;exitX=0;exitY=0.5;exitDx=0;exitDy=0;" parent="eg7fZ7Qx4ifohQcsQK5a-16" source="eg7fZ7Qx4ifohQcsQK5a-19" target="eg7fZ7Qx4ifohQcsQK5a-21" edge="1">
          <mxGeometry relative="1" as="geometry">
            <mxPoint y="70" as="targetPoint" />
            <Array as="points">
              <mxPoint x="-90" y="104" />
              <mxPoint x="-90" y="65" />
            </Array>
          </mxGeometry>
        </mxCell>
        <mxCell id="eg7fZ7Qx4ifohQcsQK5a-33" value="将消息存入 vector 中" style="edgeLabel;html=1;align=center;verticalAlign=middle;resizable=0;points=[];" parent="eg7fZ7Qx4ifohQcsQK5a-32" vertex="1" connectable="0">
          <mxGeometry x="-0.1098" relative="1" as="geometry">
            <mxPoint x="20" y="-10" as="offset" />
          </mxGeometry>
        </mxCell>
        <mxCell id="eg7fZ7Qx4ifohQcsQK5a-19" value="Append()" style="text;strokeColor=none;fillColor=none;align=left;verticalAlign=top;spacingLeft=4;spacingRight=4;overflow=hidden;rotatable=0;points=[[0,0.5],[1,0.5]];portConstraint=eastwest;whiteSpace=wrap;html=1;" parent="eg7fZ7Qx4ifohQcsQK5a-16" vertex="1">
          <mxGeometry y="88" width="160" height="32" as="geometry" />
        </mxCell>
        <mxCell id="eg7fZ7Qx4ifohQcsQK5a-24" value="ThreadFunc()" style="text;strokeColor=none;fillColor=none;align=left;verticalAlign=top;spacingLeft=4;spacingRight=4;overflow=hidden;rotatable=0;points=[[0,0.5],[1,0.5]];portConstraint=eastwest;whiteSpace=wrap;html=1;" parent="eg7fZ7Qx4ifohQcsQK5a-16" vertex="1">
          <mxGeometry y="120" width="160" height="30" as="geometry" />
        </mxCell>
        <mxCell id="eg7fZ7Qx4ifohQcsQK5a-27" value="LogFile output(basename_, rollsize_)" style="html=1;whiteSpace=wrap;" parent="1" vertex="1">
          <mxGeometry x="110" y="452.5" width="220" height="45" as="geometry" />
        </mxCell>
        <mxCell id="eg7fZ7Qx4ifohQcsQK5a-38" style="edgeStyle=orthogonalEdgeStyle;rounded=0;orthogonalLoop=1;jettySize=auto;html=1;entryX=0.5;entryY=0;entryDx=0;entryDy=0;" parent="1" source="eg7fZ7Qx4ifohQcsQK5a-21" target="eg7fZ7Qx4ifohQcsQK5a-27" edge="1">
          <mxGeometry relative="1" as="geometry">
            <mxPoint x="190" y="430" as="targetPoint" />
          </mxGeometry>
        </mxCell>
        <mxCell id="eg7fZ7Qx4ifohQcsQK5a-41" value="循环取出消息写入 LogFile" style="edgeLabel;html=1;align=center;verticalAlign=middle;resizable=0;points=[];" parent="eg7fZ7Qx4ifohQcsQK5a-38" vertex="1" connectable="0">
          <mxGeometry x="-0.1748" y="2" relative="1" as="geometry">
            <mxPoint as="offset" />
          </mxGeometry>
        </mxCell>
        <mxCell id="eg7fZ7Qx4ifohQcsQK5a-42" value="" style="rounded=0;orthogonalLoop=1;jettySize=auto;html=1;endArrow=halfCircle;endFill=0;endSize=6;strokeWidth=1;sketch=0;fontSize=12;curved=1;entryX=0;entryY=0.5;entryDx=0;entryDy=0;" parent="1" source="eg7fZ7Qx4ifohQcsQK5a-24" target="eg7fZ7Qx4ifohQcsQK5a-27" edge="1">
          <mxGeometry relative="1" as="geometry">
            <mxPoint x="155" y="525" as="sourcePoint" />
            <mxPoint x="150" y="470" as="targetPoint" />
          </mxGeometry>
        </mxCell>
        <mxCell id="eg7fZ7Qx4ifohQcsQK5a-43" value="" style="ellipse;whiteSpace=wrap;html=1;align=center;aspect=fixed;fillColor=none;strokeColor=none;resizable=0;perimeter=centerPerimeter;rotatable=0;allowArrows=0;points=[];outlineConnect=1;" parent="1" vertex="1">
          <mxGeometry x="65" y="520" width="10" height="10" as="geometry" />
        </mxCell>
        <mxCell id="eg7fZ7Qx4ifohQcsQK5a-44" value="Logger" style="swimlane;fontStyle=1;align=center;verticalAlign=top;childLayout=stackLayout;horizontal=1;startSize=26;horizontalStack=0;resizeParent=1;resizeParentMax=0;resizeLast=0;collapsible=1;marginBottom=0;whiteSpace=wrap;html=1;" parent="1" vertex="1">
          <mxGeometry x="-310" y="610" width="160" height="120" as="geometry">
            <mxRectangle x="110" y="144" width="80" height="30" as="alternateBounds" />
          </mxGeometry>
        </mxCell>
        <mxCell id="eg7fZ7Qx4ifohQcsQK5a-45" value="Impl impl_" style="text;strokeColor=none;fillColor=none;align=left;verticalAlign=top;spacingLeft=4;spacingRight=4;overflow=hidden;rotatable=0;points=[[0,0.5],[1,0.5]];portConstraint=eastwest;whiteSpace=wrap;html=1;" parent="eg7fZ7Qx4ifohQcsQK5a-44" vertex="1">
          <mxGeometry y="26" width="160" height="24" as="geometry" />
        </mxCell>
        <mxCell id="eg7fZ7Qx4ifohQcsQK5a-47" value="" style="line;strokeWidth=1;fillColor=none;align=left;verticalAlign=middle;spacingTop=-1;spacingLeft=3;spacingRight=3;rotatable=0;labelPosition=right;points=[];portConstraint=eastwest;strokeColor=inherit;" parent="eg7fZ7Qx4ifohQcsQK5a-44" vertex="1">
          <mxGeometry y="50" width="160" height="8" as="geometry" />
        </mxCell>
        <mxCell id="eg7fZ7Qx4ifohQcsQK5a-50" value="Append()" style="text;strokeColor=none;fillColor=none;align=left;verticalAlign=top;spacingLeft=4;spacingRight=4;overflow=hidden;rotatable=0;points=[[0,0.5],[1,0.5]];portConstraint=eastwest;whiteSpace=wrap;html=1;" parent="eg7fZ7Qx4ifohQcsQK5a-44" vertex="1">
          <mxGeometry y="58" width="160" height="32" as="geometry" />
        </mxCell>
        <mxCell id="eg7fZ7Qx4ifohQcsQK5a-51" value="ThreadFunc()" style="text;strokeColor=none;fillColor=none;align=left;verticalAlign=top;spacingLeft=4;spacingRight=4;overflow=hidden;rotatable=0;points=[[0,0.5],[1,0.5]];portConstraint=eastwest;whiteSpace=wrap;html=1;" parent="eg7fZ7Qx4ifohQcsQK5a-44" vertex="1">
          <mxGeometry y="90" width="160" height="30" as="geometry" />
        </mxCell>
        <mxCell id="eg7fZ7Qx4ifohQcsQK5a-52" value="" style="ellipse;whiteSpace=wrap;html=1;align=center;aspect=fixed;fillColor=none;strokeColor=none;resizable=0;perimeter=centerPerimeter;rotatable=0;allowArrows=0;points=[];outlineConnect=1;" parent="1" vertex="1">
          <mxGeometry x="-35.879999999999995" y="655" width="10" height="10" as="geometry" />
        </mxCell>
        <mxCell id="eg7fZ7Qx4ifohQcsQK5a-53" value="Impl" style="swimlane;fontStyle=1;align=center;verticalAlign=top;childLayout=stackLayout;horizontal=1;startSize=26;horizontalStack=0;resizeParent=1;resizeParentMax=0;resizeLast=0;collapsible=1;marginBottom=0;whiteSpace=wrap;html=1;" parent="1" vertex="1">
          <mxGeometry x="-90" y="600" width="160" height="120" as="geometry">
            <mxRectangle x="110" y="144" width="80" height="30" as="alternateBounds" />
          </mxGeometry>
        </mxCell>
        <mxCell id="eg7fZ7Qx4ifohQcsQK5a-54" value="&lt;div&gt;LogStream stream_&lt;/div&gt;" style="text;strokeColor=none;fillColor=none;align=left;verticalAlign=top;spacingLeft=4;spacingRight=4;overflow=hidden;rotatable=0;points=[[0,0.5],[1,0.5]];portConstraint=eastwest;whiteSpace=wrap;html=1;" parent="eg7fZ7Qx4ifohQcsQK5a-53" vertex="1">
          <mxGeometry y="26" width="160" height="24" as="geometry" />
        </mxCell>
        <mxCell id="eg7fZ7Qx4ifohQcsQK5a-56" value="" style="line;strokeWidth=1;fillColor=none;align=left;verticalAlign=middle;spacingTop=-1;spacingLeft=3;spacingRight=3;rotatable=0;labelPosition=right;points=[];portConstraint=eastwest;strokeColor=inherit;" parent="eg7fZ7Qx4ifohQcsQK5a-53" vertex="1">
          <mxGeometry y="50" width="160" height="8" as="geometry" />
        </mxCell>
        <mxCell id="eg7fZ7Qx4ifohQcsQK5a-57" value="Append()" style="text;strokeColor=none;fillColor=none;align=left;verticalAlign=top;spacingLeft=4;spacingRight=4;overflow=hidden;rotatable=0;points=[[0,0.5],[1,0.5]];portConstraint=eastwest;whiteSpace=wrap;html=1;" parent="eg7fZ7Qx4ifohQcsQK5a-53" vertex="1">
          <mxGeometry y="58" width="160" height="32" as="geometry" />
        </mxCell>
        <mxCell id="eg7fZ7Qx4ifohQcsQK5a-58" value="ThreadFunc()" style="text;strokeColor=none;fillColor=none;align=left;verticalAlign=top;spacingLeft=4;spacingRight=4;overflow=hidden;rotatable=0;points=[[0,0.5],[1,0.5]];portConstraint=eastwest;whiteSpace=wrap;html=1;" parent="eg7fZ7Qx4ifohQcsQK5a-53" vertex="1">
          <mxGeometry y="90" width="160" height="30" as="geometry" />
        </mxCell>
        <mxCell id="eg7fZ7Qx4ifohQcsQK5a-59" style="edgeStyle=orthogonalEdgeStyle;rounded=0;orthogonalLoop=1;jettySize=auto;html=1;entryX=0.015;entryY=0.079;entryDx=0;entryDy=0;entryPerimeter=0;" parent="1" source="eg7fZ7Qx4ifohQcsQK5a-45" target="eg7fZ7Qx4ifohQcsQK5a-53" edge="1">
          <mxGeometry relative="1" as="geometry" />
        </mxCell>
        <mxCell id="OOnRTSh6GD4LPhkBgmr7-1" value="Class Timer" style="swimlane;fontStyle=1;align=center;verticalAlign=top;childLayout=stackLayout;horizontal=1;startSize=26;horizontalStack=0;resizeParent=1;resizeParentMax=0;resizeLast=0;collapsible=1;marginBottom=0;whiteSpace=wrap;html=1;" parent="1" vertex="1">
          <mxGeometry x="-1050" y="610" width="390" height="190" as="geometry" />
        </mxCell>
        <mxCell id="OOnRTSh6GD4LPhkBgmr7-2" value="const function&amp;lt;void()&amp;gt; callback_&lt;span style=&quot;white-space: pre;&quot;&gt;&#x9;&lt;/span&gt;&lt;span style=&quot;white-space: pre;&quot;&gt;&#x9;&lt;/span&gt;//* 回调函数" style="text;strokeColor=none;fillColor=none;align=left;verticalAlign=top;spacingLeft=4;spacingRight=4;overflow=hidden;rotatable=0;points=[[0,0.5],[1,0.5]];portConstraint=eastwest;whiteSpace=wrap;html=1;" parent="OOnRTSh6GD4LPhkBgmr7-1" vertex="1">
          <mxGeometry y="26" width="390" height="26" as="geometry" />
        </mxCell>
        <mxCell id="OOnRTSh6GD4LPhkBgmr7-5" value="Timestamp expiration_&lt;span style=&quot;white-space: pre;&quot;&gt;&#x9;&lt;/span&gt;&lt;span style=&quot;white-space: pre;&quot;&gt;&#x9;&lt;/span&gt;//* 时间戳" style="text;strokeColor=none;fillColor=none;align=left;verticalAlign=top;spacingLeft=4;spacingRight=4;overflow=hidden;rotatable=0;points=[[0,0.5],[1,0.5]];portConstraint=eastwest;whiteSpace=wrap;html=1;" parent="OOnRTSh6GD4LPhkBgmr7-1" vertex="1">
          <mxGeometry y="52" width="390" height="26" as="geometry" />
        </mxCell>
        <mxCell id="OOnRTSh6GD4LPhkBgmr7-6" value="const double interval_&lt;span style=&quot;white-space: pre;&quot;&gt;&#x9;&lt;span style=&quot;white-space: pre;&quot;&gt;&#x9;&lt;/span&gt;//*&lt;/span&gt;&amp;nbsp;重复定时器的执行事件的时间间隔&lt;span style=&quot;white-space: pre;&quot;&gt;&#x9;&lt;/span&gt;" style="text;strokeColor=none;fillColor=none;align=left;verticalAlign=top;spacingLeft=4;spacingRight=4;overflow=hidden;rotatable=0;points=[[0,0.5],[1,0.5]];portConstraint=eastwest;whiteSpace=wrap;html=1;" parent="OOnRTSh6GD4LPhkBgmr7-1" vertex="1">
          <mxGeometry y="78" width="390" height="26" as="geometry" />
        </mxCell>
        <mxCell id="OOnRTSh6GD4LPhkBgmr7-7" value="const bool repeat_&lt;span style=&quot;white-space: pre;&quot;&gt;&#x9;&lt;span style=&quot;white-space: pre;&quot;&gt;&#x9;&lt;/span&gt;//*&lt;/span&gt;&amp;nbsp;是否重复&lt;span style=&quot;white-space: pre;&quot;&gt;&#x9;&lt;/span&gt;" style="text;strokeColor=none;fillColor=none;align=left;verticalAlign=top;spacingLeft=4;spacingRight=4;overflow=hidden;rotatable=0;points=[[0,0.5],[1,0.5]];portConstraint=eastwest;whiteSpace=wrap;html=1;" parent="OOnRTSh6GD4LPhkBgmr7-1" vertex="1">
          <mxGeometry y="104" width="390" height="26" as="geometry" />
        </mxCell>
        <mxCell id="OOnRTSh6GD4LPhkBgmr7-8" value="const int64_t sequence_&lt;span style=&quot;white-space: pre;&quot;&gt;&#x9;&lt;span style=&quot;white-space: pre;&quot;&gt;&#x9;&lt;/span&gt;//*&lt;/span&gt;&amp;nbsp;该定时器唯一标识&lt;span style=&quot;white-space: pre;&quot;&gt;&#x9;&lt;/span&gt;" style="text;strokeColor=none;fillColor=none;align=left;verticalAlign=top;spacingLeft=4;spacingRight=4;overflow=hidden;rotatable=0;points=[[0,0.5],[1,0.5]];portConstraint=eastwest;whiteSpace=wrap;html=1;" parent="OOnRTSh6GD4LPhkBgmr7-1" vertex="1">
          <mxGeometry y="130" width="390" height="26" as="geometry" />
        </mxCell>
        <mxCell id="OOnRTSh6GD4LPhkBgmr7-9" value="static automic_int64_t num_created_&lt;span style=&quot;white-space: pre;&quot;&gt;&#x9;&lt;span style=&quot;white-space: pre;&quot;&gt;&#x9;&lt;/span&gt;//*&lt;/span&gt;&amp;nbsp;全局计数&lt;span style=&quot;white-space: pre;&quot;&gt;&#x9;&lt;/span&gt;" style="text;strokeColor=none;fillColor=none;align=left;verticalAlign=top;spacingLeft=4;spacingRight=4;overflow=hidden;rotatable=0;points=[[0,0.5],[1,0.5]];portConstraint=eastwest;whiteSpace=wrap;html=1;" parent="OOnRTSh6GD4LPhkBgmr7-1" vertex="1">
          <mxGeometry y="156" width="390" height="26" as="geometry" />
        </mxCell>
        <mxCell id="OOnRTSh6GD4LPhkBgmr7-3" value="" style="line;strokeWidth=1;fillColor=none;align=left;verticalAlign=middle;spacingTop=-1;spacingLeft=3;spacingRight=3;rotatable=0;labelPosition=right;points=[];portConstraint=eastwest;strokeColor=inherit;" parent="OOnRTSh6GD4LPhkBgmr7-1" vertex="1">
          <mxGeometry y="182" width="390" height="8" as="geometry" />
        </mxCell>
        <mxCell id="OOnRTSh6GD4LPhkBgmr7-10" value="一个计时任务的封装" style="text;align=center;fontStyle=1;verticalAlign=middle;spacingLeft=3;spacingRight=3;strokeColor=none;rotatable=0;points=[[0,0.5],[1,0.5]];portConstraint=eastwest;html=1;" parent="1" vertex="1">
          <mxGeometry x="-910" y="580" width="80" height="26" as="geometry" />
        </mxCell>
        <mxCell id="Yab6Imsjhd1hrr_P7zsS-1" value="Class Channel" style="swimlane;fontStyle=1;align=center;verticalAlign=top;childLayout=stackLayout;horizontal=1;startSize=26;horizontalStack=0;resizeParent=1;resizeParentMax=0;resizeLast=0;collapsible=1;marginBottom=0;whiteSpace=wrap;html=1;" parent="1" vertex="1">
          <mxGeometry x="-494" y="46" width="310" height="294" as="geometry" />
        </mxCell>
        <mxCell id="Yab6Imsjhd1hrr_P7zsS-2" value="EventLoop* loop_&lt;span style=&quot;white-space: pre;&quot;&gt;&#x9;&lt;/span&gt;&lt;span style=&quot;white-space: pre;&quot;&gt;&#x9;&lt;/span&gt;//*" style="text;strokeColor=none;fillColor=none;align=left;verticalAlign=top;spacingLeft=4;spacingRight=4;overflow=hidden;rotatable=0;points=[[0,0.5],[1,0.5]];portConstraint=eastwest;whiteSpace=wrap;html=1;" parent="Yab6Imsjhd1hrr_P7zsS-1" vertex="1">
          <mxGeometry y="26" width="310" height="26" as="geometry" />
        </mxCell>
        <mxCell id="Yab6Imsjhd1hrr_P7zsS-5" value="int fd_" style="text;strokeColor=none;fillColor=none;align=left;verticalAlign=top;spacingLeft=4;spacingRight=4;overflow=hidden;rotatable=0;points=[[0,0.5],[1,0.5]];portConstraint=eastwest;whiteSpace=wrap;html=1;" parent="Yab6Imsjhd1hrr_P7zsS-1" vertex="1">
          <mxGeometry y="52" width="310" height="26" as="geometry" />
        </mxCell>
        <mxCell id="Yab6Imsjhd1hrr_P7zsS-6" value="int events_" style="text;strokeColor=none;fillColor=none;align=left;verticalAlign=top;spacingLeft=4;spacingRight=4;overflow=hidden;rotatable=0;points=[[0,0.5],[1,0.5]];portConstraint=eastwest;whiteSpace=wrap;html=1;" parent="Yab6Imsjhd1hrr_P7zsS-1" vertex="1">
          <mxGeometry y="78" width="310" height="26" as="geometry" />
        </mxCell>
        <mxCell id="Yab6Imsjhd1hrr_P7zsS-7" value="int revents_" style="text;strokeColor=none;fillColor=none;align=left;verticalAlign=top;spacingLeft=4;spacingRight=4;overflow=hidden;rotatable=0;points=[[0,0.5],[1,0.5]];portConstraint=eastwest;whiteSpace=wrap;html=1;" parent="Yab6Imsjhd1hrr_P7zsS-1" vertex="1">
          <mxGeometry y="104" width="310" height="26" as="geometry" />
        </mxCell>
        <mxCell id="Yab6Imsjhd1hrr_P7zsS-8" value="bool isInEpoll_" style="text;strokeColor=none;fillColor=none;align=left;verticalAlign=top;spacingLeft=4;spacingRight=4;overflow=hidden;rotatable=0;points=[[0,0.5],[1,0.5]];portConstraint=eastwest;whiteSpace=wrap;html=1;" parent="Yab6Imsjhd1hrr_P7zsS-1" vertex="1">
          <mxGeometry y="130" width="310" height="26" as="geometry" />
        </mxCell>
        <mxCell id="Yab6Imsjhd1hrr_P7zsS-9" value="function&amp;lt;void()&amp;gt; readCallback_&lt;span style=&quot;white-space: pre;&quot;&gt;&#x9;&lt;/span&gt;//* 读事件触发回调" style="text;strokeColor=none;fillColor=none;align=left;verticalAlign=top;spacingLeft=4;spacingRight=4;overflow=hidden;rotatable=0;points=[[0,0.5],[1,0.5]];portConstraint=eastwest;whiteSpace=wrap;html=1;" parent="Yab6Imsjhd1hrr_P7zsS-1" vertex="1">
          <mxGeometry y="156" width="310" height="26" as="geometry" />
        </mxCell>
        <mxCell id="Yab6Imsjhd1hrr_P7zsS-10" value="function&amp;lt;void()&amp;gt; writeCallback_&lt;span style=&quot;white-space: pre;&quot;&gt;&#x9;&lt;/span&gt;//* 写事件触发回调" style="text;strokeColor=none;fillColor=none;align=left;verticalAlign=top;spacingLeft=4;spacingRight=4;overflow=hidden;rotatable=0;points=[[0,0.5],[1,0.5]];portConstraint=eastwest;whiteSpace=wrap;html=1;" parent="Yab6Imsjhd1hrr_P7zsS-1" vertex="1">
          <mxGeometry y="182" width="310" height="26" as="geometry" />
        </mxCell>
        <mxCell id="Yab6Imsjhd1hrr_P7zsS-11" value="function&amp;lt;void()&amp;gt; closeCallback_" style="text;strokeColor=none;fillColor=none;align=left;verticalAlign=top;spacingLeft=4;spacingRight=4;overflow=hidden;rotatable=0;points=[[0,0.5],[1,0.5]];portConstraint=eastwest;whiteSpace=wrap;html=1;" parent="Yab6Imsjhd1hrr_P7zsS-1" vertex="1">
          <mxGeometry y="208" width="310" height="26" as="geometry" />
        </mxCell>
        <mxCell id="Yab6Imsjhd1hrr_P7zsS-12" value="function&amp;lt;void()&amp;gt; errorCallback_" style="text;strokeColor=none;fillColor=none;align=left;verticalAlign=top;spacingLeft=4;spacingRight=4;overflow=hidden;rotatable=0;points=[[0,0.5],[1,0.5]];portConstraint=eastwest;whiteSpace=wrap;html=1;" parent="Yab6Imsjhd1hrr_P7zsS-1" vertex="1">
          <mxGeometry y="234" width="310" height="26" as="geometry" />
        </mxCell>
        <mxCell id="Yab6Imsjhd1hrr_P7zsS-3" value="" style="line;strokeWidth=1;fillColor=none;align=left;verticalAlign=middle;spacingTop=-1;spacingLeft=3;spacingRight=3;rotatable=0;labelPosition=right;points=[];portConstraint=eastwest;strokeColor=inherit;" parent="Yab6Imsjhd1hrr_P7zsS-1" vertex="1">
          <mxGeometry y="260" width="310" height="8" as="geometry" />
        </mxCell>
        <mxCell id="Yab6Imsjhd1hrr_P7zsS-4" value="Channel(EventLoop* loop, int fd)" style="text;strokeColor=none;fillColor=none;align=left;verticalAlign=top;spacingLeft=4;spacingRight=4;overflow=hidden;rotatable=0;points=[[0,0.5],[1,0.5]];portConstraint=eastwest;whiteSpace=wrap;html=1;" parent="Yab6Imsjhd1hrr_P7zsS-1" vertex="1">
          <mxGeometry y="268" width="310" height="26" as="geometry" />
        </mxCell>
        <mxCell id="Yab6Imsjhd1hrr_P7zsS-13" value="Class Epoll" style="swimlane;fontStyle=1;align=center;verticalAlign=top;childLayout=stackLayout;horizontal=1;startSize=26;horizontalStack=0;resizeParent=1;resizeParentMax=0;resizeLast=0;collapsible=1;marginBottom=0;whiteSpace=wrap;html=1;" parent="1" vertex="1">
          <mxGeometry x="-1110" y="126" width="530" height="164" as="geometry" />
        </mxCell>
        <mxCell id="Yab6Imsjhd1hrr_P7zsS-14" value="int epfd_&amp;nbsp;&lt;span style=&quot;white-space: pre;&quot;&gt;&#x9;&lt;/span&gt;&lt;span style=&quot;white-space: pre;&quot;&gt;&#x9;&lt;/span&gt;//* epoll 文件描述符" style="text;strokeColor=none;fillColor=none;align=left;verticalAlign=top;spacingLeft=4;spacingRight=4;overflow=hidden;rotatable=0;points=[[0,0.5],[1,0.5]];portConstraint=eastwest;whiteSpace=wrap;html=1;" parent="Yab6Imsjhd1hrr_P7zsS-13" vertex="1">
          <mxGeometry y="26" width="530" height="26" as="geometry" />
        </mxCell>
        <mxCell id="Yab6Imsjhd1hrr_P7zsS-17" value="struct epoll_event* event_" style="text;strokeColor=none;fillColor=none;align=left;verticalAlign=top;spacingLeft=4;spacingRight=4;overflow=hidden;rotatable=0;points=[[0,0.5],[1,0.5]];portConstraint=eastwest;whiteSpace=wrap;html=1;" parent="Yab6Imsjhd1hrr_P7zsS-13" vertex="1">
          <mxGeometry y="52" width="530" height="26" as="geometry" />
        </mxCell>
        <mxCell id="Yab6Imsjhd1hrr_P7zsS-15" value="" style="line;strokeWidth=1;fillColor=none;align=left;verticalAlign=middle;spacingTop=-1;spacingLeft=3;spacingRight=3;rotatable=0;labelPosition=right;points=[];portConstraint=eastwest;strokeColor=inherit;" parent="Yab6Imsjhd1hrr_P7zsS-13" vertex="1">
          <mxGeometry y="78" width="530" height="8" as="geometry" />
        </mxCell>
        <mxCell id="Yab6Imsjhd1hrr_P7zsS-16" value="updateChannel(Channel* ch)&lt;span style=&quot;white-space: pre;&quot;&gt;&#x9;&lt;span style=&quot;white-space: pre;&quot;&gt;&#x9;&lt;/span&gt;&lt;/span&gt;//* 将 ch 代表的事件注册进 epoll 中" style="text;strokeColor=none;fillColor=none;align=left;verticalAlign=top;spacingLeft=4;spacingRight=4;overflow=hidden;rotatable=0;points=[[0,0.5],[1,0.5]];portConstraint=eastwest;whiteSpace=wrap;html=1;" parent="Yab6Imsjhd1hrr_P7zsS-13" vertex="1">
          <mxGeometry y="86" width="530" height="26" as="geometry" />
        </mxCell>
        <mxCell id="Yab6Imsjhd1hrr_P7zsS-19" value="del(Channel* ch)&lt;span style=&quot;white-space: pre;&quot;&gt;&#x9;&lt;/span&gt;&lt;span style=&quot;white-space: pre;&quot;&gt;&#x9;&lt;/span&gt;//* 将 ch 代表的事件从 epoll 中删除" style="text;strokeColor=none;fillColor=none;align=left;verticalAlign=top;spacingLeft=4;spacingRight=4;overflow=hidden;rotatable=0;points=[[0,0.5],[1,0.5]];portConstraint=eastwest;whiteSpace=wrap;html=1;" parent="Yab6Imsjhd1hrr_P7zsS-13" vertex="1">
          <mxGeometry y="112" width="530" height="26" as="geometry" />
        </mxCell>
        <mxCell id="Yab6Imsjhd1hrr_P7zsS-20" value="Epoll_wait(vector&amp;lt;Channel*&amp;gt;&amp;amp; active, int timeout)&lt;span style=&quot;white-space: pre;&quot;&gt;&#x9;&lt;/span&gt;&amp;nbsp; &amp;nbsp;//* epoll_wait 返回触发 Channel 事件列表" style="text;strokeColor=none;fillColor=none;align=left;verticalAlign=top;spacingLeft=4;spacingRight=4;overflow=hidden;rotatable=0;points=[[0,0.5],[1,0.5]];portConstraint=eastwest;whiteSpace=wrap;html=1;" parent="Yab6Imsjhd1hrr_P7zsS-13" vertex="1">
          <mxGeometry y="138" width="530" height="26" as="geometry" />
        </mxCell>
        <mxCell id="Yab6Imsjhd1hrr_P7zsS-18" value="管理 epoll 文件描述符的相关操作" style="text;align=center;fontStyle=1;verticalAlign=middle;spacingLeft=3;spacingRight=3;strokeColor=none;rotatable=0;points=[[0,0.5],[1,0.5]];portConstraint=eastwest;html=1;" parent="1" vertex="1">
          <mxGeometry x="-885" y="100" width="80" height="26" as="geometry" />
        </mxCell>
        <mxCell id="NpfTrIcf8r5zGEg2071M-1" value="Class InetAddr" style="swimlane;fontStyle=1;align=center;verticalAlign=top;childLayout=stackLayout;horizontal=1;startSize=26;horizontalStack=0;resizeParent=1;resizeParentMax=0;resizeLast=0;collapsible=1;marginBottom=0;whiteSpace=wrap;html=1;" parent="1" vertex="1">
          <mxGeometry x="-800" y="1020" width="235" height="216" as="geometry" />
        </mxCell>
        <mxCell id="NpfTrIcf8r5zGEg2071M-2" value="struct sockaddr_in addr_" style="text;strokeColor=none;fillColor=none;align=left;verticalAlign=top;spacingLeft=4;spacingRight=4;overflow=hidden;rotatable=0;points=[[0,0.5],[1,0.5]];portConstraint=eastwest;whiteSpace=wrap;html=1;" parent="NpfTrIcf8r5zGEg2071M-1" vertex="1">
          <mxGeometry y="26" width="235" height="26" as="geometry" />
        </mxCell>
        <mxCell id="NpfTrIcf8r5zGEg2071M-3" value="" style="line;strokeWidth=1;fillColor=none;align=left;verticalAlign=middle;spacingTop=-1;spacingLeft=3;spacingRight=3;rotatable=0;labelPosition=right;points=[];portConstraint=eastwest;strokeColor=inherit;" parent="NpfTrIcf8r5zGEg2071M-1" vertex="1">
          <mxGeometry y="52" width="235" height="8" as="geometry" />
        </mxCell>
        <mxCell id="NpfTrIcf8r5zGEg2071M-4" value="InetAddr(sockaddr_in&amp;amp; addr)" style="text;strokeColor=none;fillColor=none;align=left;verticalAlign=top;spacingLeft=4;spacingRight=4;overflow=hidden;rotatable=0;points=[[0,0.5],[1,0.5]];portConstraint=eastwest;whiteSpace=wrap;html=1;" parent="NpfTrIcf8r5zGEg2071M-1" vertex="1">
          <mxGeometry y="60" width="235" height="26" as="geometry" />
        </mxCell>
        <mxCell id="NpfTrIcf8r5zGEg2071M-5" value="struct sockaddr_in getSockAddr()" style="text;strokeColor=none;fillColor=none;align=left;verticalAlign=top;spacingLeft=4;spacingRight=4;overflow=hidden;rotatable=0;points=[[0,0.5],[1,0.5]];portConstraint=eastwest;whiteSpace=wrap;html=1;" parent="NpfTrIcf8r5zGEg2071M-1" vertex="1">
          <mxGeometry y="86" width="235" height="26" as="geometry" />
        </mxCell>
        <mxCell id="NpfTrIcf8r5zGEg2071M-6" value="void setAddr(&lt;span style=&quot;color: rgba(0, 0, 0, 0); font-family: monospace; font-size: 0px; text-wrap: nowrap;&quot;&gt;&lt;span style=&quot;color: rgb(0, 0, 0); font-family: Helvetica; font-size: 12px; text-wrap: wrap;&quot;&gt;struct sockaddr_in&amp;amp; addr&lt;/span&gt;%3CmxGraphModel%3E%3Croot%3E%3CmxCell%20id%3D%220%22%2F%3E%3CmxCell%20id%3D%221%22%20parent%3D%220%22%2F%3E%3CmxCell%20id%3D%222%22%20value%3D%22struct%20sockaddr_in%20getSockAddr()%22%20style%3D%22text%3BstrokeColor%3Dnone%3BfillColor%3Dnone%3Balign%3Dleft%3BverticalAlign%3Dtop%3BspacingLeft%3D4%3BspacingRight%3D4%3Boverflow%3Dhidden%3Brotatable%3D0%3Bpoints%3D%5B%5B0%2C0.5%5D%2C%5B1%2C0.5%5D%5D%3BportConstraint%3Deastwest%3BwhiteSpace%3Dwrap%3Bhtml%3D1%3B%22%20vertex%3D%221%22%20parent%3D%221%22%3E%3CmxGeometry%20x%3D%22-935%22%20y%3D%221056%22%20width%3D%22235%22%20height%3D%2226%22%20as%3D%22geometry%22%2F%3E%3C%2FmxCell%3E%3C%2Froot%3E%3C%2FmxGraphModel%3E&lt;/span&gt;)" style="text;strokeColor=none;fillColor=none;align=left;verticalAlign=top;spacingLeft=4;spacingRight=4;overflow=hidden;rotatable=0;points=[[0,0.5],[1,0.5]];portConstraint=eastwest;whiteSpace=wrap;html=1;" parent="NpfTrIcf8r5zGEg2071M-1" vertex="1">
          <mxGeometry y="112" width="235" height="26" as="geometry" />
        </mxCell>
        <mxCell id="NpfTrIcf8r5zGEg2071M-7" value="string toIp()" style="text;strokeColor=none;fillColor=none;align=left;verticalAlign=top;spacingLeft=4;spacingRight=4;overflow=hidden;rotatable=0;points=[[0,0.5],[1,0.5]];portConstraint=eastwest;whiteSpace=wrap;html=1;" parent="NpfTrIcf8r5zGEg2071M-1" vertex="1">
          <mxGeometry y="138" width="235" height="26" as="geometry" />
        </mxCell>
        <mxCell id="NpfTrIcf8r5zGEg2071M-8" value="string toIpPort()" style="text;strokeColor=none;fillColor=none;align=left;verticalAlign=top;spacingLeft=4;spacingRight=4;overflow=hidden;rotatable=0;points=[[0,0.5],[1,0.5]];portConstraint=eastwest;whiteSpace=wrap;html=1;" parent="NpfTrIcf8r5zGEg2071M-1" vertex="1">
          <mxGeometry y="164" width="235" height="26" as="geometry" />
        </mxCell>
        <mxCell id="NpfTrIcf8r5zGEg2071M-9" value="unsigned short toPort()" style="text;strokeColor=none;fillColor=none;align=left;verticalAlign=top;spacingLeft=4;spacingRight=4;overflow=hidden;rotatable=0;points=[[0,0.5],[1,0.5]];portConstraint=eastwest;whiteSpace=wrap;html=1;" parent="NpfTrIcf8r5zGEg2071M-1" vertex="1">
          <mxGeometry y="190" width="235" height="26" as="geometry" />
        </mxCell>
        <mxCell id="NpfTrIcf8r5zGEg2071M-10" value="封装一个 IP 和 Port" style="text;align=center;fontStyle=1;verticalAlign=middle;spacingLeft=3;spacingRight=3;strokeColor=none;rotatable=0;points=[[0,0.5],[1,0.5]];portConstraint=eastwest;html=1;" parent="1" vertex="1">
          <mxGeometry x="-722.5" y="990" width="80" height="26" as="geometry" />
        </mxCell>
        <mxCell id="NpfTrIcf8r5zGEg2071M-11" value="Class Socket" style="swimlane;fontStyle=1;align=center;verticalAlign=top;childLayout=stackLayout;horizontal=1;startSize=26;horizontalStack=0;resizeParent=1;resizeParentMax=0;resizeLast=0;collapsible=1;marginBottom=0;whiteSpace=wrap;html=1;" parent="1" vertex="1">
          <mxGeometry x="-1130" y="1030" width="270" height="190" as="geometry" />
        </mxCell>
        <mxCell id="NpfTrIcf8r5zGEg2071M-12" value="int sockfd_" style="text;strokeColor=none;fillColor=none;align=left;verticalAlign=top;spacingLeft=4;spacingRight=4;overflow=hidden;rotatable=0;points=[[0,0.5],[1,0.5]];portConstraint=eastwest;whiteSpace=wrap;html=1;" parent="NpfTrIcf8r5zGEg2071M-11" vertex="1">
          <mxGeometry y="26" width="270" height="26" as="geometry" />
        </mxCell>
        <mxCell id="NpfTrIcf8r5zGEg2071M-13" value="" style="line;strokeWidth=1;fillColor=none;align=left;verticalAlign=middle;spacingTop=-1;spacingLeft=3;spacingRight=3;rotatable=0;labelPosition=right;points=[];portConstraint=eastwest;strokeColor=inherit;" parent="NpfTrIcf8r5zGEg2071M-11" vertex="1">
          <mxGeometry y="52" width="270" height="8" as="geometry" />
        </mxCell>
        <mxCell id="NpfTrIcf8r5zGEg2071M-14" value="void bind(InetAddr&amp;amp; serv_addr)" style="text;strokeColor=none;fillColor=none;align=left;verticalAlign=top;spacingLeft=4;spacingRight=4;overflow=hidden;rotatable=0;points=[[0,0.5],[1,0.5]];portConstraint=eastwest;whiteSpace=wrap;html=1;" parent="NpfTrIcf8r5zGEg2071M-11" vertex="1">
          <mxGeometry y="60" width="270" height="26" as="geometry" />
        </mxCell>
        <mxCell id="NpfTrIcf8r5zGEg2071M-15" value="int accept(InetAddr* addr)" style="text;strokeColor=none;fillColor=none;align=left;verticalAlign=top;spacingLeft=4;spacingRight=4;overflow=hidden;rotatable=0;points=[[0,0.5],[1,0.5]];portConstraint=eastwest;whiteSpace=wrap;html=1;" parent="NpfTrIcf8r5zGEg2071M-11" vertex="1">
          <mxGeometry y="86" width="270" height="26" as="geometry" />
        </mxCell>
        <mxCell id="NpfTrIcf8r5zGEg2071M-16" value="void listen()" style="text;strokeColor=none;fillColor=none;align=left;verticalAlign=top;spacingLeft=4;spacingRight=4;overflow=hidden;rotatable=0;points=[[0,0.5],[1,0.5]];portConstraint=eastwest;whiteSpace=wrap;html=1;" parent="NpfTrIcf8r5zGEg2071M-11" vertex="1">
          <mxGeometry y="112" width="270" height="26" as="geometry" />
        </mxCell>
        <mxCell id="NpfTrIcf8r5zGEg2071M-17" value="void setNonblock()" style="text;strokeColor=none;fillColor=none;align=left;verticalAlign=top;spacingLeft=4;spacingRight=4;overflow=hidden;rotatable=0;points=[[0,0.5],[1,0.5]];portConstraint=eastwest;whiteSpace=wrap;html=1;" parent="NpfTrIcf8r5zGEg2071M-11" vertex="1">
          <mxGeometry y="138" width="270" height="26" as="geometry" />
        </mxCell>
        <mxCell id="NpfTrIcf8r5zGEg2071M-18" value="int fd()" style="text;strokeColor=none;fillColor=none;align=left;verticalAlign=top;spacingLeft=4;spacingRight=4;overflow=hidden;rotatable=0;points=[[0,0.5],[1,0.5]];portConstraint=eastwest;whiteSpace=wrap;html=1;" parent="NpfTrIcf8r5zGEg2071M-11" vertex="1">
          <mxGeometry y="164" width="270" height="26" as="geometry" />
        </mxCell>
        <mxCell id="NpfTrIcf8r5zGEg2071M-20" value="封装 Socket fd 的相关操作" style="text;align=center;fontStyle=1;verticalAlign=middle;spacingLeft=3;spacingRight=3;strokeColor=none;rotatable=0;points=[[0,0.5],[1,0.5]];portConstraint=eastwest;html=1;" parent="1" vertex="1">
          <mxGeometry x="-1035" y="1004" width="80" height="26" as="geometry" />
        </mxCell>
        <mxCell id="NpfTrIcf8r5zGEg2071M-21" value="Class CountDownLatch" style="swimlane;fontStyle=1;align=center;verticalAlign=top;childLayout=stackLayout;horizontal=1;startSize=26;horizontalStack=0;resizeParent=1;resizeParentMax=0;resizeLast=0;collapsible=1;marginBottom=0;whiteSpace=wrap;html=1;" parent="1" vertex="1">
          <mxGeometry x="-685" y="1370" width="230" height="216" as="geometry" />
        </mxCell>
        <mxCell id="NpfTrIcf8r5zGEg2071M-22" value="mutex mutex_" style="text;strokeColor=none;fillColor=none;align=left;verticalAlign=top;spacingLeft=4;spacingRight=4;overflow=hidden;rotatable=0;points=[[0,0.5],[1,0.5]];portConstraint=eastwest;whiteSpace=wrap;html=1;" parent="NpfTrIcf8r5zGEg2071M-21" vertex="1">
          <mxGeometry y="26" width="230" height="26" as="geometry" />
        </mxCell>
        <mxCell id="NpfTrIcf8r5zGEg2071M-25" value="condition_variable cond_" style="text;strokeColor=none;fillColor=none;align=left;verticalAlign=top;spacingLeft=4;spacingRight=4;overflow=hidden;rotatable=0;points=[[0,0.5],[1,0.5]];portConstraint=eastwest;whiteSpace=wrap;html=1;" parent="NpfTrIcf8r5zGEg2071M-21" vertex="1">
          <mxGeometry y="52" width="230" height="26" as="geometry" />
        </mxCell>
        <mxCell id="NpfTrIcf8r5zGEg2071M-26" value="int count_" style="text;strokeColor=none;fillColor=none;align=left;verticalAlign=top;spacingLeft=4;spacingRight=4;overflow=hidden;rotatable=0;points=[[0,0.5],[1,0.5]];portConstraint=eastwest;whiteSpace=wrap;html=1;" parent="NpfTrIcf8r5zGEg2071M-21" vertex="1">
          <mxGeometry y="78" width="230" height="26" as="geometry" />
        </mxCell>
        <mxCell id="NpfTrIcf8r5zGEg2071M-23" value="" style="line;strokeWidth=1;fillColor=none;align=left;verticalAlign=middle;spacingTop=-1;spacingLeft=3;spacingRight=3;rotatable=0;labelPosition=right;points=[];portConstraint=eastwest;strokeColor=inherit;" parent="NpfTrIcf8r5zGEg2071M-21" vertex="1">
          <mxGeometry y="104" width="230" height="8" as="geometry" />
        </mxCell>
        <mxCell id="NpfTrIcf8r5zGEg2071M-24" value="CountDownLatch(int count)" style="text;strokeColor=none;fillColor=none;align=left;verticalAlign=top;spacingLeft=4;spacingRight=4;overflow=hidden;rotatable=0;points=[[0,0.5],[1,0.5]];portConstraint=eastwest;whiteSpace=wrap;html=1;" parent="NpfTrIcf8r5zGEg2071M-21" vertex="1">
          <mxGeometry y="112" width="230" height="26" as="geometry" />
        </mxCell>
        <mxCell id="NpfTrIcf8r5zGEg2071M-27" value="void wait()" style="text;strokeColor=none;fillColor=none;align=left;verticalAlign=top;spacingLeft=4;spacingRight=4;overflow=hidden;rotatable=0;points=[[0,0.5],[1,0.5]];portConstraint=eastwest;whiteSpace=wrap;html=1;" parent="NpfTrIcf8r5zGEg2071M-21" vertex="1">
          <mxGeometry y="138" width="230" height="26" as="geometry" />
        </mxCell>
        <mxCell id="NpfTrIcf8r5zGEg2071M-28" value="void countDown()" style="text;strokeColor=none;fillColor=none;align=left;verticalAlign=top;spacingLeft=4;spacingRight=4;overflow=hidden;rotatable=0;points=[[0,0.5],[1,0.5]];portConstraint=eastwest;whiteSpace=wrap;html=1;" parent="NpfTrIcf8r5zGEg2071M-21" vertex="1">
          <mxGeometry y="164" width="230" height="26" as="geometry" />
        </mxCell>
        <mxCell id="NpfTrIcf8r5zGEg2071M-29" value="int getCount()" style="text;strokeColor=none;fillColor=none;align=left;verticalAlign=top;spacingLeft=4;spacingRight=4;overflow=hidden;rotatable=0;points=[[0,0.5],[1,0.5]];portConstraint=eastwest;whiteSpace=wrap;html=1;" parent="NpfTrIcf8r5zGEg2071M-21" vertex="1">
          <mxGeometry y="190" width="230" height="26" as="geometry" />
        </mxCell>
        <mxCell id="NpfTrIcf8r5zGEg2071M-30" value="提供一个带 Count 的条件变量操作&lt;div&gt;Count-- == 0 时，唤醒在此条件变量上线程&lt;/div&gt;" style="text;align=center;fontStyle=1;verticalAlign=middle;spacingLeft=3;spacingRight=3;strokeColor=none;rotatable=0;points=[[0,0.5],[1,0.5]];portConstraint=eastwest;html=1;" parent="1" vertex="1">
          <mxGeometry x="-610" y="1340" width="80" height="26" as="geometry" />
        </mxCell>
        <mxCell id="NpfTrIcf8r5zGEg2071M-31" value="Class Thread" style="swimlane;fontStyle=1;align=center;verticalAlign=top;childLayout=stackLayout;horizontal=1;startSize=26;horizontalStack=0;resizeParent=1;resizeParentMax=0;resizeLast=0;collapsible=1;marginBottom=0;whiteSpace=wrap;html=1;" parent="1" vertex="1">
          <mxGeometry x="-940" y="1376" width="160" height="164" as="geometry" />
        </mxCell>
        <mxCell id="NpfTrIcf8r5zGEg2071M-32" value="function&amp;lt;void()&amp;gt; func_" style="text;strokeColor=none;fillColor=none;align=left;verticalAlign=top;spacingLeft=4;spacingRight=4;overflow=hidden;rotatable=0;points=[[0,0.5],[1,0.5]];portConstraint=eastwest;whiteSpace=wrap;html=1;" parent="NpfTrIcf8r5zGEg2071M-31" vertex="1">
          <mxGeometry y="26" width="160" height="26" as="geometry" />
        </mxCell>
        <mxCell id="NpfTrIcf8r5zGEg2071M-35" value="CountDownLatch latch_" style="text;strokeColor=none;fillColor=none;align=left;verticalAlign=top;spacingLeft=4;spacingRight=4;overflow=hidden;rotatable=0;points=[[0,0.5],[1,0.5]];portConstraint=eastwest;whiteSpace=wrap;html=1;" parent="NpfTrIcf8r5zGEg2071M-31" vertex="1">
          <mxGeometry y="52" width="160" height="26" as="geometry" />
        </mxCell>
        <mxCell id="NpfTrIcf8r5zGEg2071M-33" value="" style="line;strokeWidth=1;fillColor=none;align=left;verticalAlign=middle;spacingTop=-1;spacingLeft=3;spacingRight=3;rotatable=0;labelPosition=right;points=[];portConstraint=eastwest;strokeColor=inherit;" parent="NpfTrIcf8r5zGEg2071M-31" vertex="1">
          <mxGeometry y="78" width="160" height="8" as="geometry" />
        </mxCell>
        <mxCell id="NpfTrIcf8r5zGEg2071M-34" value="Thread(ThreadFunc)" style="text;strokeColor=none;fillColor=none;align=left;verticalAlign=top;spacingLeft=4;spacingRight=4;overflow=hidden;rotatable=0;points=[[0,0.5],[1,0.5]];portConstraint=eastwest;whiteSpace=wrap;html=1;" parent="NpfTrIcf8r5zGEg2071M-31" vertex="1">
          <mxGeometry y="86" width="160" height="26" as="geometry" />
        </mxCell>
        <mxCell id="NpfTrIcf8r5zGEg2071M-36" value="void start()" style="text;strokeColor=none;fillColor=none;align=left;verticalAlign=top;spacingLeft=4;spacingRight=4;overflow=hidden;rotatable=0;points=[[0,0.5],[1,0.5]];portConstraint=eastwest;whiteSpace=wrap;html=1;" parent="NpfTrIcf8r5zGEg2071M-31" vertex="1">
          <mxGeometry y="112" width="160" height="26" as="geometry" />
        </mxCell>
        <mxCell id="NpfTrIcf8r5zGEg2071M-37" value="void join()" style="text;strokeColor=none;fillColor=none;align=left;verticalAlign=top;spacingLeft=4;spacingRight=4;overflow=hidden;rotatable=0;points=[[0,0.5],[1,0.5]];portConstraint=eastwest;whiteSpace=wrap;html=1;" parent="NpfTrIcf8r5zGEg2071M-31" vertex="1">
          <mxGeometry y="138" width="160" height="26" as="geometry" />
        </mxCell>
        <mxCell id="NpfTrIcf8r5zGEg2071M-39" style="edgeStyle=orthogonalEdgeStyle;rounded=0;orthogonalLoop=1;jettySize=auto;html=1;entryX=0.017;entryY=0.065;entryDx=0;entryDy=0;entryPerimeter=0;" parent="1" source="NpfTrIcf8r5zGEg2071M-35" target="NpfTrIcf8r5zGEg2071M-21" edge="1">
          <mxGeometry relative="1" as="geometry" />
        </mxCell>
        <mxCell id="NpfTrIcf8r5zGEg2071M-40" value="封装一个线程" style="text;align=center;fontStyle=1;verticalAlign=middle;spacingLeft=3;spacingRight=3;strokeColor=none;rotatable=0;points=[[0,0.5],[1,0.5]];portConstraint=eastwest;html=1;" parent="1" vertex="1">
          <mxGeometry x="-900" y="1350" width="80" height="26" as="geometry" />
        </mxCell>
        <mxCell id="NpfTrIcf8r5zGEg2071M-41" value="Class ThreadPool" style="swimlane;fontStyle=1;align=center;verticalAlign=top;childLayout=stackLayout;horizontal=1;startSize=26;horizontalStack=0;resizeParent=1;resizeParentMax=0;resizeLast=0;collapsible=1;marginBottom=0;whiteSpace=wrap;html=1;" parent="1" vertex="1">
          <mxGeometry x="-1390" y="1350" width="330" height="220" as="geometry" />
        </mxCell>
        <mxCell id="NpfTrIcf8r5zGEg2071M-42" value="queue&amp;lt;function&amp;lt;void()&amp;gt;&amp;gt; tasks_" style="text;strokeColor=none;fillColor=none;align=left;verticalAlign=top;spacingLeft=4;spacingRight=4;overflow=hidden;rotatable=0;points=[[0,0.5],[1,0.5]];portConstraint=eastwest;whiteSpace=wrap;html=1;" parent="NpfTrIcf8r5zGEg2071M-41" vertex="1">
          <mxGeometry y="26" width="330" height="26" as="geometry" />
        </mxCell>
        <mxCell id="NpfTrIcf8r5zGEg2071M-45" value="vector&amp;lt;unique_ptr&amp;lt;Thread&amp;gt;&amp;gt; threads_" style="text;strokeColor=none;fillColor=none;align=left;verticalAlign=top;spacingLeft=4;spacingRight=4;overflow=hidden;rotatable=0;points=[[0,0.5],[1,0.5]];portConstraint=eastwest;whiteSpace=wrap;html=1;" parent="NpfTrIcf8r5zGEg2071M-41" vertex="1">
          <mxGeometry y="52" width="330" height="26" as="geometry" />
        </mxCell>
        <mxCell id="NpfTrIcf8r5zGEg2071M-43" value="" style="line;strokeWidth=1;fillColor=none;align=left;verticalAlign=middle;spacingTop=-1;spacingLeft=3;spacingRight=3;rotatable=0;labelPosition=right;points=[];portConstraint=eastwest;strokeColor=inherit;" parent="NpfTrIcf8r5zGEg2071M-41" vertex="1">
          <mxGeometry y="78" width="330" height="8" as="geometry" />
        </mxCell>
        <mxCell id="NpfTrIcf8r5zGEg2071M-44" value="&lt;div&gt;//* 从任务队列中取任务，执行相对应的回调函数&lt;/div&gt;void runInThread()" style="text;strokeColor=none;fillColor=none;align=left;verticalAlign=top;spacingLeft=4;spacingRight=4;overflow=hidden;rotatable=0;points=[[0,0.5],[1,0.5]];portConstraint=eastwest;whiteSpace=wrap;html=1;" parent="NpfTrIcf8r5zGEg2071M-41" vertex="1">
          <mxGeometry y="86" width="330" height="44" as="geometry" />
        </mxCell>
        <mxCell id="NpfTrIcf8r5zGEg2071M-46" value="void start(int numThreads)&lt;span style=&quot;white-space: pre;&quot;&gt;&#x9;&lt;/span&gt;&lt;span style=&quot;white-space: pre;&quot;&gt;&#x9;&lt;/span&gt;//* 启动线程池&lt;div&gt;&lt;/div&gt;" style="text;strokeColor=none;fillColor=none;align=left;verticalAlign=top;spacingLeft=4;spacingRight=4;overflow=hidden;rotatable=0;points=[[0,0.5],[1,0.5]];portConstraint=eastwest;whiteSpace=wrap;html=1;" parent="NpfTrIcf8r5zGEg2071M-41" vertex="1">
          <mxGeometry y="130" width="330" height="30" as="geometry" />
        </mxCell>
        <mxCell id="NpfTrIcf8r5zGEg2071M-47" value="void stop()&lt;div&gt;&lt;/div&gt;" style="text;strokeColor=none;fillColor=none;align=left;verticalAlign=top;spacingLeft=4;spacingRight=4;overflow=hidden;rotatable=0;points=[[0,0.5],[1,0.5]];portConstraint=eastwest;whiteSpace=wrap;html=1;" parent="NpfTrIcf8r5zGEg2071M-41" vertex="1">
          <mxGeometry y="160" width="330" height="30" as="geometry" />
        </mxCell>
        <mxCell id="NpfTrIcf8r5zGEg2071M-48" value="void add(function&amp;lt;void()&amp;gt; f)&lt;span style=&quot;white-space: pre;&quot;&gt;&#x9;&lt;/span&gt;//* 往任务队列添加任务&lt;div&gt;&lt;/div&gt;" style="text;strokeColor=none;fillColor=none;align=left;verticalAlign=top;spacingLeft=4;spacingRight=4;overflow=hidden;rotatable=0;points=[[0,0.5],[1,0.5]];portConstraint=eastwest;whiteSpace=wrap;html=1;" parent="NpfTrIcf8r5zGEg2071M-41" vertex="1">
          <mxGeometry y="190" width="330" height="30" as="geometry" />
        </mxCell>
        <mxCell id="iI90W-SuSf3rReQGc0_U-1" value="线程池" style="text;align=center;fontStyle=1;verticalAlign=middle;spacingLeft=3;spacingRight=3;strokeColor=none;rotatable=0;points=[[0,0.5],[1,0.5]];portConstraint=eastwest;html=1;" parent="1" vertex="1">
          <mxGeometry x="-1270" y="1320" width="80" height="26" as="geometry" />
        </mxCell>
        <mxCell id="iI90W-SuSf3rReQGc0_U-2" style="edgeStyle=orthogonalEdgeStyle;rounded=0;orthogonalLoop=1;jettySize=auto;html=1;entryX=0.019;entryY=0.055;entryDx=0;entryDy=0;entryPerimeter=0;" parent="1" source="NpfTrIcf8r5zGEg2071M-45" target="NpfTrIcf8r5zGEg2071M-31" edge="1">
          <mxGeometry relative="1" as="geometry" />
        </mxCell>
        <mxCell id="l8gtWlF4ozdlqB6wvDSG-2" value="&lt;div style=&quot;color: rgb(171, 178, 191); background-color: rgb(40, 44, 52); font-family: Consolas, &amp;quot;Courier New&amp;quot;, monospace; font-weight: normal; font-size: 14px; line-height: 19px; white-space-collapse: preserve;&quot;&gt;&lt;span style=&quot;color: #c678dd;&quot;&gt;void&lt;/span&gt; &lt;span style=&quot;color: #e5c07b;&quot;&gt;websocketServer&lt;/span&gt;::&lt;span style=&quot;color: #61afef;&quot;&gt;onConnetion&lt;/span&gt;(&lt;span style=&quot;color: #c678dd;&quot;&gt;const&lt;/span&gt; &lt;span style=&quot;color: #e5c07b;&quot;&gt;ConnectionPtr&lt;/span&gt;&lt;span style=&quot;color: #c678dd;&quot;&gt;&amp;amp;&lt;/span&gt; conn)&lt;/div&gt;" style="text;align=center;fontStyle=1;verticalAlign=middle;spacingLeft=3;spacingRight=3;strokeColor=none;rotatable=0;points=[[0,0.5],[1,0.5]];portConstraint=eastwest;html=1;" parent="1" vertex="1">
          <mxGeometry x="-240" y="1870" width="80" height="26" as="geometry" />
        </mxCell>
        <mxCell id="l8gtWlF4ozdlqB6wvDSG-3" value="&lt;div style=&quot;color: #abb2bf;background-color: #282c34;font-family: Consolas, &#39;Courier New&#39;, monospace;font-weight: normal;font-size: 14px;line-height: 19px;white-space: pre;&quot;&gt;&lt;div&gt;&lt;span style=&quot;color: #c678dd;&quot;&gt;void&lt;/span&gt;&lt;span style=&quot;color: #abb2bf;&quot;&gt; &lt;/span&gt;&lt;span style=&quot;color: #e5c07b;&quot;&gt;websocketServer&lt;/span&gt;&lt;span style=&quot;color: #abb2bf;&quot;&gt;::&lt;/span&gt;&lt;span style=&quot;color: #61afef;&quot;&gt;onMessage&lt;/span&gt;&lt;span style=&quot;color: #abb2bf;&quot;&gt;(&lt;/span&gt;&lt;span style=&quot;color: #c678dd;&quot;&gt;const&lt;/span&gt;&lt;span style=&quot;color: #abb2bf;&quot;&gt; &lt;/span&gt;&lt;span style=&quot;color: #e5c07b;&quot;&gt;ConnectionPtr&lt;/span&gt;&lt;span style=&quot;color: #c678dd;&quot;&gt;&amp;amp;&lt;/span&gt;&lt;span style=&quot;color: #abb2bf;&quot;&gt; &lt;/span&gt;&lt;span style=&quot;color: #abb2bf;&quot;&gt;conn&lt;/span&gt;&lt;span style=&quot;color: #abb2bf;&quot;&gt;, &lt;/span&gt;&lt;span style=&quot;color: #e5c07b;&quot;&gt;Buffer&lt;/span&gt;&lt;span style=&quot;color: #c678dd;&quot;&gt;*&lt;/span&gt;&lt;span style=&quot;color: #abb2bf;&quot;&gt; &lt;/span&gt;&lt;span style=&quot;color: #abb2bf;&quot;&gt;buf&lt;/span&gt;&lt;span style=&quot;color: #abb2bf;&quot;&gt;)&lt;/span&gt;&lt;/div&gt;&lt;/div&gt;" style="text;whiteSpace=wrap;html=1;" parent="1" vertex="1">
          <mxGeometry x="-460" y="1710" width="560" height="40" as="geometry" />
        </mxCell>
        <mxCell id="l8gtWlF4ozdlqB6wvDSG-7" value="&lt;div style=&quot;color: #abb2bf;background-color: #282c34;font-family: Consolas, &#39;Courier New&#39;, monospace;font-weight: normal;font-size: 14px;line-height: 19px;white-space: pre;&quot;&gt;&lt;div&gt;&lt;span style=&quot;color: #e06c75;&quot;&gt;&lt;span style=&quot;color: rgb(229, 192, 123);&quot;&gt;Server&lt;/span&gt;&lt;/span&gt;&lt;span style=&quot;text-align: center;&quot;&gt;::&lt;/span&gt;&lt;span style=&quot;color: rgb(224, 108, 117);&quot;&gt;connectionCallback_&lt;/span&gt;&lt;/div&gt;&lt;/div&gt;" style="text;whiteSpace=wrap;html=1;" parent="1" vertex="1">
          <mxGeometry x="225" y="1863" width="180" height="40" as="geometry" />
        </mxCell>
        <mxCell id="80qu3IoSOQkizysxYAwl-2" value="" style="edgeStyle=orthogonalEdgeStyle;rounded=0;orthogonalLoop=1;jettySize=auto;html=1;" edge="1" parent="1" source="l8gtWlF4ozdlqB6wvDSG-8" target="80qu3IoSOQkizysxYAwl-1">
          <mxGeometry relative="1" as="geometry">
            <Array as="points">
              <mxPoint x="420" y="1730" />
              <mxPoint x="420" y="1730" />
            </Array>
          </mxGeometry>
        </mxCell>
        <mxCell id="l8gtWlF4ozdlqB6wvDSG-8" value="&lt;div style=&quot;color: #abb2bf;background-color: #282c34;font-family: Consolas, &#39;Courier New&#39;, monospace;font-weight: normal;font-size: 14px;line-height: 19px;white-space: pre;&quot;&gt;&lt;div&gt;&lt;span style=&quot;color: #e06c75;&quot;&gt;&lt;span style=&quot;color: rgb(229, 192, 123);&quot;&gt;Server&lt;/span&gt;&lt;/span&gt;&lt;span style=&quot;text-align: center;&quot;&gt;::&lt;/span&gt;&lt;span style=&quot;color: rgb(224, 108, 117);&quot;&gt;messageCallback_&lt;/span&gt;&lt;/div&gt;&lt;/div&gt;" style="text;whiteSpace=wrap;html=1;" parent="1" vertex="1">
          <mxGeometry x="195.5" y="1715" width="189" height="20" as="geometry" />
        </mxCell>
        <mxCell id="l8gtWlF4ozdlqB6wvDSG-9" value="&lt;div style=&quot;color: #abb2bf;background-color: #282c34;font-family: Consolas, &#39;Courier New&#39;, monospace;font-weight: normal;font-size: 14px;line-height: 19px;white-space: pre;&quot;&gt;&lt;span style=&quot;color: #e5c07b;&quot;&gt;websocketServer&lt;/span&gt;&lt;span style=&quot;color: #abb2bf;&quot;&gt;::&lt;/span&gt;&lt;span style=&quot;color: rgb(224, 108, 117);&quot;&gt;websocketCallback_&lt;/span&gt; &lt;br&gt;&lt;/div&gt;" style="text;whiteSpace=wrap;html=1;" parent="1" vertex="1">
          <mxGeometry x="-1230" y="1690" width="560" height="40" as="geometry" />
        </mxCell>
        <mxCell id="l8gtWlF4ozdlqB6wvDSG-10" value="&lt;div style=&quot;background-color: rgb(40, 44, 52); font-family: Consolas, &amp;quot;Courier New&amp;quot;, monospace; font-weight: normal; font-size: 14px; line-height: 19px; white-space: pre; color: rgb(171, 178, 191);&quot;&gt;&lt;span style=&quot;color: rgb(171, 178, 191);&quot;&gt;&lt;font color=&quot;#e5c07b&quot;&gt;&lt;span style=&quot;color: rgb(198, 120, 221);&quot;&gt;void &lt;/span&gt;main&lt;/font&gt;&lt;/span&gt;&lt;span style=&quot;color: rgb(171, 178, 191);&quot;&gt;::&lt;/span&gt;&lt;span style=&quot;color: rgb(97, 175, 239);&quot;&gt;onRequest&lt;/span&gt;(&lt;span style=&quot;color: rgb(198, 120, 221);&quot;&gt;const&lt;/span&gt; &lt;span style=&quot;color: rgb(229, 192, 123);&quot;&gt;Buffer&lt;/span&gt;&lt;span style=&quot;color: rgb(198, 120, 221);&quot;&gt;*&lt;/span&gt; input, &lt;span style=&quot;color: rgb(229, 192, 123);&quot;&gt;Buffer&lt;/span&gt;&lt;span style=&quot;color: rgb(198, 120, 221);&quot;&gt;*&lt;/span&gt; output)&lt;/div&gt;" style="text;whiteSpace=wrap;html=1;" parent="1" vertex="1">
          <mxGeometry x="-1300" y="1640" width="560" height="40" as="geometry" />
        </mxCell>
        <mxCell id="l8gtWlF4ozdlqB6wvDSG-11" value="&lt;div style=&quot;color: #abb2bf;background-color: #282c34;font-family: Consolas, &#39;Courier New&#39;, monospace;font-weight: normal;font-size: 14px;line-height: 19px;white-space: pre;&quot;&gt;&lt;div&gt;&lt;span style=&quot;color: rgb(229, 192, 123);&quot;&gt;Acceptor&lt;/span&gt;&lt;span style=&quot;text-align: center;&quot;&gt;::&lt;/span&gt;&lt;span style=&quot;color: rgb(224, 108, 117);&quot;&gt;newConnectionCallback_&lt;/span&gt;&lt;/div&gt;&lt;/div&gt;" style="text;whiteSpace=wrap;html=1;" parent="1" vertex="1">
          <mxGeometry x="-1410" y="2510" width="250" height="40" as="geometry" />
        </mxCell>
        <mxCell id="l8gtWlF4ozdlqB6wvDSG-13" style="edgeStyle=orthogonalEdgeStyle;rounded=0;orthogonalLoop=1;jettySize=auto;html=1;" parent="1" source="l8gtWlF4ozdlqB6wvDSG-12" target="l8gtWlF4ozdlqB6wvDSG-11" edge="1">
          <mxGeometry relative="1" as="geometry" />
        </mxCell>
        <mxCell id="l8gtWlF4ozdlqB6wvDSG-12" value="&lt;div style=&quot;color: #abb2bf;background-color: #282c34;font-family: Consolas, &#39;Courier New&#39;, monospace;font-weight: normal;font-size: 14px;line-height: 19px;white-space: pre;&quot;&gt;&lt;div&gt;&lt;span style=&quot;color: #c678dd;&quot;&gt;void&lt;/span&gt;&lt;span style=&quot;color: #abb2bf;&quot;&gt; &lt;/span&gt;&lt;span style=&quot;color: #e5c07b;&quot;&gt;Server&lt;/span&gt;&lt;span style=&quot;color: #abb2bf;&quot;&gt;::&lt;/span&gt;&lt;span style=&quot;color: #61afef;&quot;&gt;newConnection&lt;/span&gt;&lt;span style=&quot;color: #abb2bf;&quot;&gt;(&lt;/span&gt;&lt;span style=&quot;color: #c678dd;&quot;&gt;int&lt;/span&gt;&lt;span style=&quot;color: #abb2bf;&quot;&gt; &lt;/span&gt;&lt;span style=&quot;color: #abb2bf;&quot;&gt;sockfd&lt;/span&gt;&lt;span style=&quot;color: #abb2bf;&quot;&gt;, &lt;/span&gt;&lt;span style=&quot;color: #c678dd;&quot;&gt;const&lt;/span&gt;&lt;span style=&quot;color: #abb2bf;&quot;&gt; &lt;/span&gt;&lt;span style=&quot;color: #e5c07b;&quot;&gt;InetAddr&lt;/span&gt;&lt;span style=&quot;color: #c678dd;&quot;&gt;&amp;amp;&lt;/span&gt;&lt;span style=&quot;color: #abb2bf;&quot;&gt; &lt;/span&gt;&lt;span style=&quot;color: #abb2bf;&quot;&gt;peerAddr&lt;/span&gt;&lt;span style=&quot;color: #abb2bf;&quot;&gt;)&lt;/span&gt;&lt;/div&gt;&lt;/div&gt;" style="text;whiteSpace=wrap;html=1;" parent="1" vertex="1">
          <mxGeometry x="-1550" y="2440" width="530" height="40" as="geometry" />
        </mxCell>
        <mxCell id="l8gtWlF4ozdlqB6wvDSG-14" value="&lt;div style=&quot;color: #abb2bf;background-color: #282c34;font-family: Consolas, &#39;Courier New&#39;, monospace;font-weight: normal;font-size: 14px;line-height: 19px;white-space: pre;&quot;&gt;&lt;div&gt;&lt;span style=&quot;color: rgb(229, 192, 123);&quot;&gt;Connection&lt;/span&gt;&lt;span style=&quot;text-align: center;&quot;&gt;::&lt;/span&gt;&lt;span style=&quot;color: rgb(224, 108, 117);&quot;&gt;messageCallback_&lt;/span&gt;&lt;/div&gt;&lt;/div&gt;" style="text;whiteSpace=wrap;html=1;" parent="1" vertex="1">
          <mxGeometry x="470" y="1848" width="219" height="40" as="geometry" />
        </mxCell>
        <mxCell id="l8gtWlF4ozdlqB6wvDSG-15" style="edgeStyle=orthogonalEdgeStyle;rounded=0;orthogonalLoop=1;jettySize=auto;html=1;entryX=0;entryY=0.75;entryDx=0;entryDy=0;" parent="1" source="l8gtWlF4ozdlqB6wvDSG-3" target="l8gtWlF4ozdlqB6wvDSG-8" edge="1">
          <mxGeometry relative="1" as="geometry" />
        </mxCell>
        <mxCell id="l8gtWlF4ozdlqB6wvDSG-16" style="edgeStyle=orthogonalEdgeStyle;rounded=0;orthogonalLoop=1;jettySize=auto;html=1;entryX=0.5;entryY=0;entryDx=0;entryDy=0;exitX=0.5;exitY=1;exitDx=0;exitDy=0;" parent="1" target="l8gtWlF4ozdlqB6wvDSG-14" edge="1" source="80qu3IoSOQkizysxYAwl-1">
          <mxGeometry relative="1" as="geometry">
            <mxPoint x="828.5" y="1900" as="sourcePoint" />
          </mxGeometry>
        </mxCell>
        <mxCell id="l8gtWlF4ozdlqB6wvDSG-19" style="edgeStyle=orthogonalEdgeStyle;rounded=0;orthogonalLoop=1;jettySize=auto;html=1;entryX=0.5;entryY=0;entryDx=0;entryDy=0;" parent="1" source="l8gtWlF4ozdlqB6wvDSG-17" target="l8gtWlF4ozdlqB6wvDSG-18" edge="1">
          <mxGeometry relative="1" as="geometry" />
        </mxCell>
        <mxCell id="l8gtWlF4ozdlqB6wvDSG-17" value="&lt;div style=&quot;color: #abb2bf;background-color: #282c34;font-family: Consolas, &#39;Courier New&#39;, monospace;font-weight: normal;font-size: 14px;line-height: 19px;white-space: pre;&quot;&gt;&lt;div&gt;&lt;span style=&quot;color: #c678dd;&quot;&gt;void&lt;/span&gt;&lt;span style=&quot;color: #abb2bf;&quot;&gt; &lt;/span&gt;&lt;span style=&quot;color: #e5c07b;&quot;&gt;Server&lt;/span&gt;&lt;span style=&quot;color: #abb2bf;&quot;&gt;::&lt;/span&gt;&lt;span style=&quot;color: #61afef;&quot;&gt;removeConnection&lt;/span&gt;&lt;span style=&quot;color: #abb2bf;&quot;&gt;(&lt;/span&gt;&lt;span style=&quot;color: #c678dd;&quot;&gt;const&lt;/span&gt;&lt;span style=&quot;color: #abb2bf;&quot;&gt; &lt;/span&gt;&lt;span style=&quot;color: #e5c07b;&quot;&gt;ConnectionPtr&lt;/span&gt;&lt;span style=&quot;color: #c678dd;&quot;&gt;&amp;amp;&lt;/span&gt;&lt;span style=&quot;color: #abb2bf;&quot;&gt; &lt;/span&gt;&lt;span style=&quot;color: #abb2bf;&quot;&gt;conn&lt;/span&gt;&lt;span style=&quot;color: #abb2bf;&quot;&gt;)&lt;/span&gt;&lt;/div&gt;&lt;/div&gt;" style="text;whiteSpace=wrap;html=1;" parent="1" vertex="1">
          <mxGeometry x="-1335" y="2130" width="460" height="40" as="geometry" />
        </mxCell>
        <mxCell id="l8gtWlF4ozdlqB6wvDSG-18" value="&lt;div style=&quot;color: #abb2bf;background-color: #282c34;font-family: Consolas, &#39;Courier New&#39;, monospace;font-weight: normal;font-size: 14px;line-height: 19px;white-space: pre;&quot;&gt;&lt;div&gt;&lt;span style=&quot;color: rgb(229, 192, 123);&quot;&gt;Connection&lt;/span&gt;&lt;span style=&quot;text-align: center;&quot;&gt;::&lt;/span&gt;&lt;span style=&quot;color: rgb(224, 108, 117);&quot;&gt;closeCallback_&lt;/span&gt;&lt;/div&gt;&lt;/div&gt;" style="text;whiteSpace=wrap;html=1;" parent="1" vertex="1">
          <mxGeometry x="-1210" y="2200" width="210" height="40" as="geometry" />
        </mxCell>
        <mxCell id="l8gtWlF4ozdlqB6wvDSG-20" value="&lt;div style=&quot;color: #abb2bf;background-color: #282c34;font-family: Consolas, &#39;Courier New&#39;, monospace;font-weight: normal;font-size: 14px;line-height: 19px;white-space: pre;&quot;&gt;&lt;div&gt;&lt;span style=&quot;color: rgb(229, 192, 123);&quot;&gt;Connection&lt;/span&gt;&lt;span style=&quot;text-align: center;&quot;&gt;::&lt;/span&gt;&lt;span style=&quot;color: rgb(224, 108, 117);&quot;&gt;connectionCallback_&lt;/span&gt;&lt;/div&gt;&lt;/div&gt;" style="text;whiteSpace=wrap;html=1;" parent="1" vertex="1">
          <mxGeometry x="540" y="1910" width="240" height="40" as="geometry" />
        </mxCell>
        <mxCell id="l8gtWlF4ozdlqB6wvDSG-24" value="" style="edgeStyle=orthogonalEdgeStyle;rounded=0;orthogonalLoop=1;jettySize=auto;html=1;" parent="1" source="l8gtWlF4ozdlqB6wvDSG-21" target="l8gtWlF4ozdlqB6wvDSG-22" edge="1">
          <mxGeometry relative="1" as="geometry" />
        </mxCell>
        <mxCell id="l8gtWlF4ozdlqB6wvDSG-21" value="&lt;div style=&quot;color: #abb2bf;background-color: #282c34;font-family: Consolas, &#39;Courier New&#39;, monospace;font-weight: normal;font-size: 14px;line-height: 19px;white-space: pre;&quot;&gt;&lt;div&gt;&lt;span style=&quot;color: #e06c75;&quot;&gt;&lt;span style=&quot;color: rgb(229, 192, 123);&quot;&gt;Server&lt;/span&gt;&lt;/span&gt;&lt;span style=&quot;text-align: center;&quot;&gt;::&lt;/span&gt;&lt;span style=&quot;color: rgb(224, 108, 117);&quot;&gt;writeCompleteCallback_ = nullptr&lt;/span&gt;&lt;/div&gt;&lt;/div&gt;" style="text;whiteSpace=wrap;html=1;" parent="1" vertex="1">
          <mxGeometry x="-1270" y="2270" width="310" height="40" as="geometry" />
        </mxCell>
        <mxCell id="l8gtWlF4ozdlqB6wvDSG-22" value="&lt;div style=&quot;color: #abb2bf;background-color: #282c34;font-family: Consolas, &#39;Courier New&#39;, monospace;font-weight: normal;font-size: 14px;line-height: 19px;white-space: pre;&quot;&gt;&lt;div&gt;&lt;span style=&quot;color: rgb(229, 192, 123);&quot;&gt;Connection&lt;/span&gt;&lt;span style=&quot;text-align: center;&quot;&gt;::&lt;/span&gt;&lt;span style=&quot;color: rgb(224, 108, 117);&quot;&gt;writeCompleteCallback_&lt;/span&gt;&lt;/div&gt;&lt;/div&gt;" style="text;whiteSpace=wrap;html=1;" parent="1" vertex="1">
          <mxGeometry x="-1250" y="2340" width="270" height="40" as="geometry" />
        </mxCell>
        <mxCell id="l8gtWlF4ozdlqB6wvDSG-25" value="&lt;div style=&quot;color: #abb2bf;background-color: #282c34;font-family: Consolas, &#39;Courier New&#39;, monospace;font-weight: normal;font-size: 14px;line-height: 19px;white-space: pre;&quot;&gt;&lt;div&gt;&lt;span style=&quot;color: #c678dd;&quot;&gt;void&lt;/span&gt;&lt;span style=&quot;color: #abb2bf;&quot;&gt; &lt;/span&gt;&lt;span style=&quot;color: #e5c07b;&quot;&gt;Connection&lt;/span&gt;&lt;span style=&quot;color: #abb2bf;&quot;&gt;::&lt;/span&gt;&lt;span style=&quot;color: #61afef;&quot;&gt;handleRead&lt;/span&gt;&lt;span style=&quot;color: #abb2bf;&quot;&gt;()&lt;/span&gt;&lt;/div&gt;&lt;/div&gt;" style="text;whiteSpace=wrap;html=1;" parent="1" vertex="1">
          <mxGeometry x="-440" y="2080" width="260" height="40" as="geometry" />
        </mxCell>
        <mxCell id="l8gtWlF4ozdlqB6wvDSG-26" value="&lt;div style=&quot;color: #abb2bf;background-color: #282c34;font-family: Consolas, &#39;Courier New&#39;, monospace;font-weight: normal;font-size: 14px;line-height: 19px;white-space: pre;&quot;&gt;&lt;div&gt;&lt;span style=&quot;color: #c678dd;&quot;&gt;void&lt;/span&gt;&lt;span style=&quot;color: #abb2bf;&quot;&gt; &lt;/span&gt;&lt;span style=&quot;color: #e5c07b;&quot;&gt;Connection&lt;/span&gt;&lt;span style=&quot;color: #abb2bf;&quot;&gt;::&lt;/span&gt;&lt;span style=&quot;color: #61afef;&quot;&gt;handleWrite&lt;/span&gt;&lt;span style=&quot;color: #abb2bf;&quot;&gt;()&lt;/span&gt;&lt;/div&gt;&lt;/div&gt;" style="text;whiteSpace=wrap;html=1;" parent="1" vertex="1">
          <mxGeometry x="-440" y="2140" width="260" height="40" as="geometry" />
        </mxCell>
        <mxCell id="l8gtWlF4ozdlqB6wvDSG-27" value="&lt;div style=&quot;color: #abb2bf;background-color: #282c34;font-family: Consolas, &#39;Courier New&#39;, monospace;font-weight: normal;font-size: 14px;line-height: 19px;white-space: pre;&quot;&gt;&lt;div&gt;&lt;span style=&quot;color: #c678dd;&quot;&gt;void&lt;/span&gt;&lt;span style=&quot;color: #abb2bf;&quot;&gt; &lt;/span&gt;&lt;span style=&quot;color: #e5c07b;&quot;&gt;Connection&lt;/span&gt;&lt;span style=&quot;color: #abb2bf;&quot;&gt;::&lt;/span&gt;&lt;span style=&quot;color: #61afef;&quot;&gt;handleClose&lt;/span&gt;&lt;span style=&quot;color: #abb2bf;&quot;&gt;()&lt;/span&gt;&lt;/div&gt;&lt;/div&gt;" style="text;whiteSpace=wrap;html=1;" parent="1" vertex="1">
          <mxGeometry x="-440" y="2200" width="260" height="40" as="geometry" />
        </mxCell>
        <mxCell id="l8gtWlF4ozdlqB6wvDSG-28" value="&lt;div style=&quot;color: #abb2bf;background-color: #282c34;font-family: Consolas, &#39;Courier New&#39;, monospace;font-weight: normal;font-size: 14px;line-height: 19px;white-space: pre;&quot;&gt;&lt;div&gt;&lt;span style=&quot;color: #c678dd;&quot;&gt;void&lt;/span&gt;&lt;span style=&quot;color: #abb2bf;&quot;&gt; &lt;/span&gt;&lt;span style=&quot;color: #e5c07b;&quot;&gt;Connection&lt;/span&gt;&lt;span style=&quot;color: #abb2bf;&quot;&gt;::&lt;/span&gt;&lt;span style=&quot;color: #61afef;&quot;&gt;handleError&lt;/span&gt;&lt;span style=&quot;color: #abb2bf;&quot;&gt;()&lt;/span&gt;&lt;/div&gt;&lt;/div&gt;" style="text;whiteSpace=wrap;html=1;" parent="1" vertex="1">
          <mxGeometry x="-440" y="2260" width="260" height="40" as="geometry" />
        </mxCell>
        <mxCell id="l8gtWlF4ozdlqB6wvDSG-29" value="&lt;div style=&quot;color: #abb2bf;background-color: #282c34;font-family: Consolas, &#39;Courier New&#39;, monospace;font-weight: normal;font-size: 14px;line-height: 19px;white-space: pre;&quot;&gt;&lt;div&gt;&lt;span style=&quot;color: #e06c75;&quot;&gt;&lt;span style=&quot;color: rgb(229, 192, 123);&quot;&gt;Channel&lt;/span&gt;&lt;/span&gt;::&lt;span style=&quot;color: rgb(224, 108, 117);&quot;&gt;readCallback_&lt;/span&gt;&lt;/div&gt;&lt;/div&gt;" style="text;whiteSpace=wrap;html=1;" parent="1" vertex="1">
          <mxGeometry x="-140" y="2080" width="130" height="40" as="geometry" />
        </mxCell>
        <mxCell id="l8gtWlF4ozdlqB6wvDSG-31" value="&lt;div style=&quot;color: #abb2bf;background-color: #282c34;font-family: Consolas, &#39;Courier New&#39;, monospace;font-weight: normal;font-size: 14px;line-height: 19px;white-space: pre;&quot;&gt;&lt;div&gt;&lt;span style=&quot;color: #e06c75;&quot;&gt;&lt;span style=&quot;color: rgb(229, 192, 123);&quot;&gt;Channel&lt;/span&gt;&lt;/span&gt;::&lt;span style=&quot;color: rgb(224, 108, 117);&quot;&gt;writeCallback_&lt;/span&gt;&lt;/div&gt;&lt;/div&gt;" style="text;whiteSpace=wrap;html=1;" parent="1" vertex="1">
          <mxGeometry x="-140" y="2140" width="130" height="40" as="geometry" />
        </mxCell>
        <mxCell id="l8gtWlF4ozdlqB6wvDSG-32" value="&lt;div style=&quot;color: #abb2bf;background-color: #282c34;font-family: Consolas, &#39;Courier New&#39;, monospace;font-weight: normal;font-size: 14px;line-height: 19px;white-space: pre;&quot;&gt;&lt;div&gt;&lt;span style=&quot;color: #e06c75;&quot;&gt;&lt;span style=&quot;color: rgb(229, 192, 123);&quot;&gt;Channel&lt;/span&gt;&lt;/span&gt;::&lt;span style=&quot;color: rgb(224, 108, 117);&quot;&gt;closeCallback_&lt;/span&gt;&lt;/div&gt;&lt;/div&gt;" style="text;whiteSpace=wrap;html=1;" parent="1" vertex="1">
          <mxGeometry x="-140" y="2200" width="130" height="40" as="geometry" />
        </mxCell>
        <mxCell id="l8gtWlF4ozdlqB6wvDSG-33" value="&lt;div style=&quot;color: #abb2bf;background-color: #282c34;font-family: Consolas, &#39;Courier New&#39;, monospace;font-weight: normal;font-size: 14px;line-height: 19px;white-space: pre;&quot;&gt;&lt;div&gt;&lt;span style=&quot;color: #e06c75;&quot;&gt;&lt;span style=&quot;color: rgb(229, 192, 123);&quot;&gt;Channel&lt;/span&gt;&lt;/span&gt;::&lt;span style=&quot;color: rgb(224, 108, 117);&quot;&gt;errorCallback_&lt;/span&gt;&lt;/div&gt;&lt;/div&gt;" style="text;whiteSpace=wrap;html=1;" parent="1" vertex="1">
          <mxGeometry x="-140" y="2260" width="130" height="40" as="geometry" />
        </mxCell>
        <mxCell id="5fYn-dddMrxKIwdkff9x-1" value="Class HttpServer" style="swimlane;fontStyle=1;align=center;verticalAlign=top;childLayout=stackLayout;horizontal=1;startSize=26;horizontalStack=0;resizeParent=1;resizeParentMax=0;resizeLast=0;collapsible=1;marginBottom=0;whiteSpace=wrap;html=1;" parent="1" vertex="1">
          <mxGeometry x="120" y="1180" width="400" height="240" as="geometry" />
        </mxCell>
        <mxCell id="5fYn-dddMrxKIwdkff9x-2" value="Server server_" style="text;strokeColor=none;fillColor=none;align=left;verticalAlign=top;spacingLeft=4;spacingRight=4;overflow=hidden;rotatable=0;points=[[0,0.5],[1,0.5]];portConstraint=eastwest;whiteSpace=wrap;html=1;" parent="5fYn-dddMrxKIwdkff9x-1" vertex="1">
          <mxGeometry y="26" width="400" height="26" as="geometry" />
        </mxCell>
        <mxCell id="5fYn-dddMrxKIwdkff9x-5" value="HttpCallback httpCallback_" style="text;strokeColor=none;fillColor=none;align=left;verticalAlign=top;spacingLeft=4;spacingRight=4;overflow=hidden;rotatable=0;points=[[0,0.5],[1,0.5]];portConstraint=eastwest;whiteSpace=wrap;html=1;" parent="5fYn-dddMrxKIwdkff9x-1" vertex="1">
          <mxGeometry y="52" width="400" height="26" as="geometry" />
        </mxCell>
        <mxCell id="5fYn-dddMrxKIwdkff9x-3" value="" style="line;strokeWidth=1;fillColor=none;align=left;verticalAlign=middle;spacingTop=-1;spacingLeft=3;spacingRight=3;rotatable=0;labelPosition=right;points=[];portConstraint=eastwest;strokeColor=inherit;" parent="5fYn-dddMrxKIwdkff9x-1" vertex="1">
          <mxGeometry y="78" width="400" height="8" as="geometry" />
        </mxCell>
        <mxCell id="5fYn-dddMrxKIwdkff9x-10" value="&lt;div&gt;//* 消息到来的回调函数&lt;/div&gt;void onMessage(const ConnectionPtr&amp;amp; conn, Buffer* buf);" style="text;strokeColor=none;fillColor=none;align=left;verticalAlign=top;spacingLeft=4;spacingRight=4;overflow=hidden;rotatable=0;points=[[0,0.5],[1,0.5]];portConstraint=eastwest;whiteSpace=wrap;html=1;" parent="5fYn-dddMrxKIwdkff9x-1" vertex="1">
          <mxGeometry y="86" width="400" height="40" as="geometry" />
        </mxCell>
        <mxCell id="5fYn-dddMrxKIwdkff9x-4" value="&lt;div&gt;//*&amp;nbsp;连接到来的回调函数&lt;br&gt;&lt;/div&gt;void onConnetion(const ConnectionPtr&amp;amp; conn)" style="text;strokeColor=none;fillColor=none;align=left;verticalAlign=top;spacingLeft=4;spacingRight=4;overflow=hidden;rotatable=0;points=[[0,0.5],[1,0.5]];portConstraint=eastwest;whiteSpace=wrap;html=1;" parent="5fYn-dddMrxKIwdkff9x-1" vertex="1">
          <mxGeometry y="126" width="400" height="44" as="geometry" />
        </mxCell>
        <mxCell id="5fYn-dddMrxKIwdkff9x-11" value="&lt;div&gt;//* 构造函数，构造 server_&lt;/div&gt;HttpServer(EventLoop* loop, const InetAddr&amp;amp; listenAddr)" style="text;strokeColor=none;fillColor=none;align=left;verticalAlign=top;spacingLeft=4;spacingRight=4;overflow=hidden;rotatable=0;points=[[0,0.5],[1,0.5]];portConstraint=eastwest;whiteSpace=wrap;html=1;" parent="5fYn-dddMrxKIwdkff9x-1" vertex="1">
          <mxGeometry y="170" width="400" height="40" as="geometry" />
        </mxCell>
        <mxCell id="5fYn-dddMrxKIwdkff9x-20" value="void start(int numThreads);&lt;div&gt;&lt;/div&gt;" style="text;strokeColor=none;fillColor=none;align=left;verticalAlign=top;spacingLeft=4;spacingRight=4;overflow=hidden;rotatable=0;points=[[0,0.5],[1,0.5]];portConstraint=eastwest;whiteSpace=wrap;html=1;" parent="5fYn-dddMrxKIwdkff9x-1" vertex="1">
          <mxGeometry y="210" width="400" height="30" as="geometry" />
        </mxCell>
        <mxCell id="5fYn-dddMrxKIwdkff9x-7" value="&lt;div style=&quot;color: #abb2bf;background-color: #282c34;font-family: Consolas, &#39;Courier New&#39;, monospace;font-weight: normal;font-size: 14px;line-height: 19px;white-space: pre;&quot;&gt;&lt;div&gt;&lt;span style=&quot;color: #c678dd;&quot;&gt;void&lt;/span&gt;&lt;span style=&quot;color: #abb2bf;&quot;&gt; &lt;/span&gt;&lt;span style=&quot;color: #61afef;&quot;&gt;onRequest&lt;/span&gt;&lt;span style=&quot;color: #abb2bf;&quot;&gt;(&lt;/span&gt;&lt;span style=&quot;color: #c678dd;&quot;&gt;const&lt;/span&gt;&lt;span style=&quot;color: #abb2bf;&quot;&gt; &lt;/span&gt;&lt;span style=&quot;color: #e5c07b;&quot;&gt;HttpRequest&lt;/span&gt;&lt;span style=&quot;color: #c678dd;&quot;&gt;&amp;amp;&lt;/span&gt;&lt;span style=&quot;color: #abb2bf;&quot;&gt; &lt;/span&gt;&lt;span style=&quot;color: #abb2bf;&quot;&gt;req&lt;/span&gt;&lt;span style=&quot;color: #abb2bf;&quot;&gt;, &lt;/span&gt;&lt;span style=&quot;color: #e5c07b;&quot;&gt;HttpResponse&lt;/span&gt;&lt;span style=&quot;color: #c678dd;&quot;&gt;*&lt;/span&gt;&lt;span style=&quot;color: #abb2bf;&quot;&gt; &lt;/span&gt;&lt;span style=&quot;color: #abb2bf;&quot;&gt;resp&lt;/span&gt;&lt;span style=&quot;color: #abb2bf;&quot;&gt;)&lt;/span&gt;&lt;/div&gt;&lt;/div&gt;" style="text;whiteSpace=wrap;html=1;" parent="1" vertex="1">
          <mxGeometry x="-440" y="1210" width="450" height="40" as="geometry" />
        </mxCell>
        <mxCell id="5fYn-dddMrxKIwdkff9x-8" value="" style="endArrow=classic;html=1;rounded=0;exitX=1;exitY=0.5;exitDx=0;exitDy=0;entryX=0;entryY=0.5;entryDx=0;entryDy=0;" parent="1" source="5fYn-dddMrxKIwdkff9x-7" target="5fYn-dddMrxKIwdkff9x-5" edge="1">
          <mxGeometry width="50" height="50" relative="1" as="geometry">
            <mxPoint x="120" y="1360" as="sourcePoint" />
            <mxPoint x="170" y="1310" as="targetPoint" />
          </mxGeometry>
        </mxCell>
        <mxCell id="5fYn-dddMrxKIwdkff9x-9" value="设置" style="edgeLabel;html=1;align=center;verticalAlign=middle;resizable=0;points=[];" parent="5fYn-dddMrxKIwdkff9x-8" vertex="1" connectable="0">
          <mxGeometry x="0.1259" y="-2" relative="1" as="geometry">
            <mxPoint as="offset" />
          </mxGeometry>
        </mxCell>
        <mxCell id="5fYn-dddMrxKIwdkff9x-12" value="Class Server" style="swimlane;fontStyle=1;align=center;verticalAlign=top;childLayout=stackLayout;horizontal=1;startSize=26;horizontalStack=0;resizeParent=1;resizeParentMax=0;resizeLast=0;collapsible=1;marginBottom=0;whiteSpace=wrap;html=1;" parent="1" vertex="1">
          <mxGeometry x="630" y="1180" width="430" height="456" as="geometry" />
        </mxCell>
        <mxCell id="5fYn-dddMrxKIwdkff9x-25" value="&lt;div&gt;//* 封装监听连接的fd，在构造函数中初始化&lt;br&gt;&lt;/div&gt;unique_ptr&amp;lt;Acceptor&amp;gt; acceptor_" style="text;strokeColor=none;fillColor=none;align=left;verticalAlign=top;spacingLeft=4;spacingRight=4;overflow=hidden;rotatable=0;points=[[0,0.5],[1,0.5]];portConstraint=eastwest;whiteSpace=wrap;html=1;" parent="5fYn-dddMrxKIwdkff9x-12" vertex="1">
          <mxGeometry y="26" width="430" height="44" as="geometry" />
        </mxCell>
        <mxCell id="5fYn-dddMrxKIwdkff9x-27" value="string ipPort_&lt;span style=&quot;white-space: pre;&quot;&gt;&#x9;&lt;/span&gt;&lt;span style=&quot;white-space: pre;&quot;&gt;&#x9;&lt;/span&gt;&lt;span style=&quot;white-space: pre;&quot;&gt;&#x9;&lt;/span&gt;//* 服务器 ip port" style="text;strokeColor=none;fillColor=none;align=left;verticalAlign=top;spacingLeft=4;spacingRight=4;overflow=hidden;rotatable=0;points=[[0,0.5],[1,0.5]];portConstraint=eastwest;whiteSpace=wrap;html=1;" parent="5fYn-dddMrxKIwdkff9x-12" vertex="1">
          <mxGeometry y="70" width="430" height="26" as="geometry" />
        </mxCell>
        <mxCell id="5fYn-dddMrxKIwdkff9x-28" value="EventLoop* loop_&lt;span style=&quot;white-space: pre;&quot;&gt;&#x9;&lt;/span&gt;&lt;span style=&quot;white-space: pre;&quot;&gt;&#x9;&lt;/span&gt;&lt;span style=&quot;white-space: pre;&quot;&gt;&#x9;&lt;/span&gt;//* 主 EventLoop" style="text;strokeColor=none;fillColor=none;align=left;verticalAlign=top;spacingLeft=4;spacingRight=4;overflow=hidden;rotatable=0;points=[[0,0.5],[1,0.5]];portConstraint=eastwest;whiteSpace=wrap;html=1;" parent="5fYn-dddMrxKIwdkff9x-12" vertex="1">
          <mxGeometry y="96" width="430" height="26" as="geometry" />
        </mxCell>
        <mxCell id="5fYn-dddMrxKIwdkff9x-29" value="&lt;div&gt;//* fd 与所有已连接 Connection 对象映射表&lt;/div&gt;map&amp;lt;int, ConnectionPtr&amp;gt;&amp;nbsp; connections_&amp;nbsp;&lt;div&gt;&lt;/div&gt;" style="text;strokeColor=none;fillColor=none;align=left;verticalAlign=top;spacingLeft=4;spacingRight=4;overflow=hidden;rotatable=0;points=[[0,0.5],[1,0.5]];portConstraint=eastwest;whiteSpace=wrap;html=1;" parent="5fYn-dddMrxKIwdkff9x-12" vertex="1">
          <mxGeometry y="122" width="430" height="44" as="geometry" />
        </mxCell>
        <mxCell id="5fYn-dddMrxKIwdkff9x-22" value="&lt;div&gt;//*&amp;nbsp;一个 EventLoop 池&lt;/div&gt;unique_ptr&amp;lt;EventLoopThreadPool&amp;gt; loop_threadpool_" style="text;strokeColor=none;fillColor=none;align=left;verticalAlign=top;spacingLeft=4;spacingRight=4;overflow=hidden;rotatable=0;points=[[0,0.5],[1,0.5]];portConstraint=eastwest;whiteSpace=wrap;html=1;" parent="5fYn-dddMrxKIwdkff9x-12" vertex="1">
          <mxGeometry y="166" width="430" height="44" as="geometry" />
        </mxCell>
        <mxCell id="5fYn-dddMrxKIwdkff9x-21" value="&lt;div&gt;//* 一个线程池&amp;nbsp;&lt;/div&gt;unique_ptr&amp;lt;ThreadPool&amp;gt; compute_threadpool_" style="text;strokeColor=none;fillColor=none;align=left;verticalAlign=top;spacingLeft=4;spacingRight=4;overflow=hidden;rotatable=0;points=[[0,0.5],[1,0.5]];portConstraint=eastwest;whiteSpace=wrap;html=1;" parent="5fYn-dddMrxKIwdkff9x-12" vertex="1">
          <mxGeometry y="210" width="430" height="40" as="geometry" />
        </mxCell>
        <mxCell id="5fYn-dddMrxKIwdkff9x-13" value="&lt;b&gt;MessageCallback messageCallback_;&lt;span style=&quot;white-space: pre;&quot;&gt;&#x9;&lt;/span&gt;&lt;span style=&quot;white-space: pre;&quot;&gt;&#x9;&lt;/span&gt;//* Connection 触发可读&lt;/b&gt;" style="text;strokeColor=none;fillColor=none;align=left;verticalAlign=top;spacingLeft=4;spacingRight=4;overflow=hidden;rotatable=0;points=[[0,0.5],[1,0.5]];portConstraint=eastwest;whiteSpace=wrap;html=1;" parent="5fYn-dddMrxKIwdkff9x-12" vertex="1">
          <mxGeometry y="250" width="430" height="26" as="geometry" />
        </mxCell>
        <mxCell id="5fYn-dddMrxKIwdkff9x-16" value="&lt;b&gt;ConnectionCallback connectionCallback_&lt;span style=&quot;white-space: pre;&quot;&gt;&#x9;&lt;/span&gt;//* 建立新连接时执行回调&lt;/b&gt;" style="text;strokeColor=none;fillColor=none;align=left;verticalAlign=top;spacingLeft=4;spacingRight=4;overflow=hidden;rotatable=0;points=[[0,0.5],[1,0.5]];portConstraint=eastwest;whiteSpace=wrap;html=1;" parent="5fYn-dddMrxKIwdkff9x-12" vertex="1">
          <mxGeometry y="276" width="430" height="26" as="geometry" />
        </mxCell>
        <mxCell id="_6DTIwwcB7EEzVG-mRBK-64" value="&lt;b&gt;WriteCompleteCallback writeCompleteCallback_&lt;span style=&quot;white-space: pre;&quot;&gt;&#x9;&lt;/span&gt;//* send 接口写完执行&lt;/b&gt;" style="text;strokeColor=none;fillColor=none;align=left;verticalAlign=top;spacingLeft=4;spacingRight=4;overflow=hidden;rotatable=0;points=[[0,0.5],[1,0.5]];portConstraint=eastwest;whiteSpace=wrap;html=1;" parent="5fYn-dddMrxKIwdkff9x-12" vertex="1">
          <mxGeometry y="302" width="430" height="26" as="geometry" />
        </mxCell>
        <mxCell id="5fYn-dddMrxKIwdkff9x-14" value="" style="line;strokeWidth=1;fillColor=none;align=left;verticalAlign=middle;spacingTop=-1;spacingLeft=3;spacingRight=3;rotatable=0;labelPosition=right;points=[];portConstraint=eastwest;strokeColor=inherit;" parent="5fYn-dddMrxKIwdkff9x-12" vertex="1">
          <mxGeometry y="328" width="430" height="8" as="geometry" />
        </mxCell>
        <mxCell id="5fYn-dddMrxKIwdkff9x-15" value="&lt;div&gt;//* 启动 EventLoop 池 和 线程池&lt;/div&gt;void start(int IOThreadNum=0,int threadNum=0)" style="text;strokeColor=none;fillColor=none;align=left;verticalAlign=top;spacingLeft=4;spacingRight=4;overflow=hidden;rotatable=0;points=[[0,0.5],[1,0.5]];portConstraint=eastwest;whiteSpace=wrap;html=1;" parent="5fYn-dddMrxKIwdkff9x-12" vertex="1">
          <mxGeometry y="336" width="430" height="40" as="geometry" />
        </mxCell>
        <mxCell id="5fYn-dddMrxKIwdkff9x-34" value="&lt;div&gt;//* 用于 Acceptor 建立新的连接时调用&lt;/div&gt;&lt;div&gt;void newConnection(int sockfd,const InetAddr&amp;amp; peerAddr)&lt;/div&gt;" style="text;strokeColor=none;fillColor=none;align=left;verticalAlign=top;spacingLeft=4;spacingRight=4;overflow=hidden;rotatable=0;points=[[0,0.5],[1,0.5]];portConstraint=eastwest;whiteSpace=wrap;html=1;" parent="5fYn-dddMrxKIwdkff9x-12" vertex="1">
          <mxGeometry y="376" width="430" height="40" as="geometry" />
        </mxCell>
        <mxCell id="_6DTIwwcB7EEzVG-mRBK-60" value="&lt;div&gt;//* 移除 Connection 的监听&lt;/div&gt;&lt;div&gt;void removeConnection(const ConnectionPtr&amp;amp; conn)&lt;br&gt;&lt;/div&gt;" style="text;strokeColor=none;fillColor=none;align=left;verticalAlign=top;spacingLeft=4;spacingRight=4;overflow=hidden;rotatable=0;points=[[0,0.5],[1,0.5]];portConstraint=eastwest;whiteSpace=wrap;html=1;" parent="5fYn-dddMrxKIwdkff9x-12" vertex="1">
          <mxGeometry y="416" width="430" height="40" as="geometry" />
        </mxCell>
        <mxCell id="5fYn-dddMrxKIwdkff9x-17" value="" style="endArrow=classic;html=1;rounded=0;exitX=1;exitY=0.5;exitDx=0;exitDy=0;entryX=0;entryY=0.5;entryDx=0;entryDy=0;" parent="1" source="5fYn-dddMrxKIwdkff9x-10" target="5fYn-dddMrxKIwdkff9x-13" edge="1">
          <mxGeometry width="50" height="50" relative="1" as="geometry">
            <mxPoint x="610" y="1320" as="sourcePoint" />
            <mxPoint x="660" y="1270" as="targetPoint" />
          </mxGeometry>
        </mxCell>
        <mxCell id="5fYn-dddMrxKIwdkff9x-18" value="" style="endArrow=classic;html=1;rounded=0;exitX=1;exitY=0.5;exitDx=0;exitDy=0;entryX=0;entryY=0.5;entryDx=0;entryDy=0;" parent="1" source="5fYn-dddMrxKIwdkff9x-4" target="5fYn-dddMrxKIwdkff9x-16" edge="1">
          <mxGeometry width="50" height="50" relative="1" as="geometry">
            <mxPoint x="450" y="1310" as="sourcePoint" />
            <mxPoint x="500" y="1260" as="targetPoint" />
          </mxGeometry>
        </mxCell>
        <mxCell id="5fYn-dddMrxKIwdkff9x-23" value="针对应用层的一个封装，这是一个 HttpServer" style="text;align=center;fontStyle=1;verticalAlign=middle;spacingLeft=3;spacingRight=3;strokeColor=none;rotatable=0;points=[[0,0.5],[1,0.5]];portConstraint=eastwest;html=1;" parent="1" vertex="1">
          <mxGeometry x="270" y="1154" width="80" height="26" as="geometry" />
        </mxCell>
        <mxCell id="5fYn-dddMrxKIwdkff9x-24" value="真正的Server层" style="text;align=center;fontStyle=1;verticalAlign=middle;spacingLeft=3;spacingRight=3;strokeColor=none;rotatable=0;points=[[0,0.5],[1,0.5]];portConstraint=eastwest;html=1;" parent="1" vertex="1">
          <mxGeometry x="805" y="1154" width="80" height="26" as="geometry" />
        </mxCell>
        <mxCell id="5fYn-dddMrxKIwdkff9x-30" value="Class Acceptor" style="swimlane;fontStyle=1;align=center;verticalAlign=top;childLayout=stackLayout;horizontal=1;startSize=26;horizontalStack=0;resizeParent=1;resizeParentMax=0;resizeLast=0;collapsible=1;marginBottom=0;whiteSpace=wrap;html=1;" parent="1" vertex="1">
          <mxGeometry x="1160" y="1600" width="390" height="248" as="geometry" />
        </mxCell>
        <mxCell id="_6DTIwwcB7EEzVG-mRBK-2" value="EventLoop* loop_&lt;span style=&quot;white-space: pre;&quot;&gt;&#x9;&lt;/span&gt;&lt;span style=&quot;white-space: pre;&quot;&gt;&#x9;&lt;/span&gt;&lt;span style=&quot;white-space: pre;&quot;&gt;&#x9;&lt;/span&gt;&lt;span style=&quot;white-space: pre;&quot;&gt;&#x9;&lt;/span&gt;//* 主 EventLoop" style="text;strokeColor=none;fillColor=none;align=left;verticalAlign=top;spacingLeft=4;spacingRight=4;overflow=hidden;rotatable=0;points=[[0,0.5],[1,0.5]];portConstraint=eastwest;whiteSpace=wrap;html=1;" parent="5fYn-dddMrxKIwdkff9x-30" vertex="1">
          <mxGeometry y="26" width="390" height="26" as="geometry" />
        </mxCell>
        <mxCell id="5fYn-dddMrxKIwdkff9x-37" value="Socket acceptSocket_&lt;span style=&quot;white-space: pre;&quot;&gt;&#x9;&lt;/span&gt;&lt;span style=&quot;white-space: pre;&quot;&gt;&#x9;&lt;/span&gt;&lt;span style=&quot;white-space: pre;&quot;&gt;&#x9;&lt;/span&gt;//* 封装 socketfd" style="text;strokeColor=none;fillColor=none;align=left;verticalAlign=top;spacingLeft=4;spacingRight=4;overflow=hidden;rotatable=0;points=[[0,0.5],[1,0.5]];portConstraint=eastwest;whiteSpace=wrap;html=1;" parent="5fYn-dddMrxKIwdkff9x-30" vertex="1">
          <mxGeometry y="52" width="390" height="26" as="geometry" />
        </mxCell>
        <mxCell id="5fYn-dddMrxKIwdkff9x-38" value="Channel acceptChannel_&lt;span style=&quot;white-space: pre;&quot;&gt;&#x9;&lt;/span&gt;&lt;span style=&quot;white-space: pre;&quot;&gt;&#x9;&lt;/span&gt;//* 封装 socketfd" style="text;strokeColor=none;fillColor=none;align=left;verticalAlign=top;spacingLeft=4;spacingRight=4;overflow=hidden;rotatable=0;points=[[0,0.5],[1,0.5]];portConstraint=eastwest;whiteSpace=wrap;html=1;" parent="5fYn-dddMrxKIwdkff9x-30" vertex="1">
          <mxGeometry y="78" width="390" height="26" as="geometry" />
        </mxCell>
        <mxCell id="5fYn-dddMrxKIwdkff9x-31" value="function&amp;lt;void(int sockfd,const InetAddr&amp;amp;)&amp;gt;&amp;nbsp;newConnectionCallback_" style="text;strokeColor=none;fillColor=none;align=left;verticalAlign=top;spacingLeft=4;spacingRight=4;overflow=hidden;rotatable=0;points=[[0,0.5],[1,0.5]];portConstraint=eastwest;whiteSpace=wrap;html=1;" parent="5fYn-dddMrxKIwdkff9x-30" vertex="1">
          <mxGeometry y="104" width="390" height="26" as="geometry" />
        </mxCell>
        <mxCell id="5fYn-dddMrxKIwdkff9x-32" value="" style="line;strokeWidth=1;fillColor=none;align=left;verticalAlign=middle;spacingTop=-1;spacingLeft=3;spacingRight=3;rotatable=0;labelPosition=right;points=[];portConstraint=eastwest;strokeColor=inherit;" parent="5fYn-dddMrxKIwdkff9x-30" vertex="1">
          <mxGeometry y="130" width="390" height="8" as="geometry" />
        </mxCell>
        <mxCell id="5fYn-dddMrxKIwdkff9x-36" value="&lt;div&gt;//* 构造函数，listenAddr：服务端 ip+port，eventLoop 为主 EventLoop&lt;/div&gt;&lt;div&gt;//* &lt;span style=&quot;white-space: pre;&quot;&gt;&#x9;&lt;/span&gt;1. 创建 socketfd 绑定地址，封装成 Channel，设置可读事件回调&lt;/div&gt;Acceptor(const InetAddr&amp;amp; listenAddr, EventLoop* eventloop)" style="text;strokeColor=none;fillColor=none;align=left;verticalAlign=top;spacingLeft=4;spacingRight=4;overflow=hidden;rotatable=0;points=[[0,0.5],[1,0.5]];portConstraint=eastwest;whiteSpace=wrap;html=1;" parent="5fYn-dddMrxKIwdkff9x-30" vertex="1">
          <mxGeometry y="138" width="390" height="58" as="geometry" />
        </mxCell>
        <mxCell id="_6DTIwwcB7EEzVG-mRBK-1" value="void handleRead();&lt;span style=&quot;white-space: pre;&quot;&gt;&#x9;&lt;span style=&quot;white-space: pre;&quot;&gt;&#x9;&lt;/span&gt;//* 会调用 newConnectionCallback_&lt;/span&gt;" style="text;strokeColor=none;fillColor=none;align=left;verticalAlign=top;spacingLeft=4;spacingRight=4;overflow=hidden;rotatable=0;points=[[0,0.5],[1,0.5]];portConstraint=eastwest;whiteSpace=wrap;html=1;" parent="5fYn-dddMrxKIwdkff9x-30" vertex="1">
          <mxGeometry y="196" width="390" height="26" as="geometry" />
        </mxCell>
        <mxCell id="_6DTIwwcB7EEzVG-mRBK-3" value="void listen();&lt;span style=&quot;white-space: pre;&quot;&gt;&#x9;&lt;/span&gt;&lt;span style=&quot;white-space: pre;&quot;&gt;&#x9;&lt;/span&gt;//* 将 acceptChannel_ 注册进 EventLoop 内监听" style="text;strokeColor=none;fillColor=none;align=left;verticalAlign=top;spacingLeft=4;spacingRight=4;overflow=hidden;rotatable=0;points=[[0,0.5],[1,0.5]];portConstraint=eastwest;whiteSpace=wrap;html=1;" parent="5fYn-dddMrxKIwdkff9x-30" vertex="1">
          <mxGeometry y="222" width="390" height="26" as="geometry" />
        </mxCell>
        <mxCell id="5fYn-dddMrxKIwdkff9x-35" value="" style="endArrow=classic;html=1;rounded=0;exitX=1;exitY=0.5;exitDx=0;exitDy=0;entryX=0;entryY=0.5;entryDx=0;entryDy=0;" parent="1" source="5fYn-dddMrxKIwdkff9x-34" target="5fYn-dddMrxKIwdkff9x-31" edge="1">
          <mxGeometry width="50" height="50" relative="1" as="geometry">
            <mxPoint x="1210" y="1280" as="sourcePoint" />
            <mxPoint x="1260" y="1230" as="targetPoint" />
          </mxGeometry>
        </mxCell>
        <mxCell id="_6DTIwwcB7EEzVG-mRBK-5" value="Class Channel" style="swimlane;fontStyle=1;align=center;verticalAlign=top;childLayout=stackLayout;horizontal=1;startSize=26;horizontalStack=0;resizeParent=1;resizeParentMax=0;resizeLast=0;collapsible=1;marginBottom=0;whiteSpace=wrap;html=1;" parent="1" vertex="1">
          <mxGeometry x="1689" y="1690" width="240" height="468" as="geometry" />
        </mxCell>
        <mxCell id="_6DTIwwcB7EEzVG-mRBK-6" value="int fd_&lt;span style=&quot;white-space:pre&quot;&gt;&#x9;&#x9;&lt;/span&gt;//* 封装的文件描述符" style="text;strokeColor=none;fillColor=none;align=left;verticalAlign=top;spacingLeft=4;spacingRight=4;overflow=hidden;rotatable=0;points=[[0,0.5],[1,0.5]];portConstraint=eastwest;whiteSpace=wrap;html=1;" parent="_6DTIwwcB7EEzVG-mRBK-5" vertex="1">
          <mxGeometry y="26" width="240" height="26" as="geometry" />
        </mxCell>
        <mxCell id="_6DTIwwcB7EEzVG-mRBK-9" value="int events_&lt;span style=&quot;white-space:pre&quot;&gt;&#x9;&lt;/span&gt;//* 需要监听的事件类型" style="text;strokeColor=none;fillColor=none;align=left;verticalAlign=top;spacingLeft=4;spacingRight=4;overflow=hidden;rotatable=0;points=[[0,0.5],[1,0.5]];portConstraint=eastwest;whiteSpace=wrap;html=1;" parent="_6DTIwwcB7EEzVG-mRBK-5" vertex="1">
          <mxGeometry y="52" width="240" height="26" as="geometry" />
        </mxCell>
        <mxCell id="_6DTIwwcB7EEzVG-mRBK-10" value="int revents_;&lt;span style=&quot;white-space:pre&quot;&gt;&#x9;&lt;/span&gt;//* 触发返回的事件类型" style="text;strokeColor=none;fillColor=none;align=left;verticalAlign=top;spacingLeft=4;spacingRight=4;overflow=hidden;rotatable=0;points=[[0,0.5],[1,0.5]];portConstraint=eastwest;whiteSpace=wrap;html=1;" parent="_6DTIwwcB7EEzVG-mRBK-5" vertex="1">
          <mxGeometry y="78" width="240" height="26" as="geometry" />
        </mxCell>
        <mxCell id="_6DTIwwcB7EEzVG-mRBK-11" value="weak_ptr&amp;lt;void&amp;gt; tie_;" style="text;strokeColor=none;fillColor=none;align=left;verticalAlign=top;spacingLeft=4;spacingRight=4;overflow=hidden;rotatable=0;points=[[0,0.5],[1,0.5]];portConstraint=eastwest;whiteSpace=wrap;html=1;" parent="_6DTIwwcB7EEzVG-mRBK-5" vertex="1">
          <mxGeometry y="104" width="240" height="26" as="geometry" />
        </mxCell>
        <mxCell id="_6DTIwwcB7EEzVG-mRBK-12" value="&lt;div&gt;//* 可读事件的回调函数&lt;br&gt;&lt;/div&gt;EventCallback readCallback_" style="text;strokeColor=none;fillColor=none;align=left;verticalAlign=top;spacingLeft=4;spacingRight=4;overflow=hidden;rotatable=0;points=[[0,0.5],[1,0.5]];portConstraint=eastwest;whiteSpace=wrap;html=1;" parent="_6DTIwwcB7EEzVG-mRBK-5" vertex="1">
          <mxGeometry y="130" width="240" height="40" as="geometry" />
        </mxCell>
        <mxCell id="_6DTIwwcB7EEzVG-mRBK-15" value="&lt;div&gt;//* 触发可写事件的回调函数&lt;br&gt;&lt;/div&gt;EventCallback writeCallback_" style="text;strokeColor=none;fillColor=none;align=left;verticalAlign=top;spacingLeft=4;spacingRight=4;overflow=hidden;rotatable=0;points=[[0,0.5],[1,0.5]];portConstraint=eastwest;whiteSpace=wrap;html=1;" parent="_6DTIwwcB7EEzVG-mRBK-5" vertex="1">
          <mxGeometry y="170" width="240" height="40" as="geometry" />
        </mxCell>
        <mxCell id="_6DTIwwcB7EEzVG-mRBK-16" value="&lt;div&gt;//* 触发关闭文件描述符的回调函数&lt;br&gt;&lt;/div&gt;EventCallback closeCallback_" style="text;strokeColor=none;fillColor=none;align=left;verticalAlign=top;spacingLeft=4;spacingRight=4;overflow=hidden;rotatable=0;points=[[0,0.5],[1,0.5]];portConstraint=eastwest;whiteSpace=wrap;html=1;" parent="_6DTIwwcB7EEzVG-mRBK-5" vertex="1">
          <mxGeometry y="210" width="240" height="40" as="geometry" />
        </mxCell>
        <mxCell id="_6DTIwwcB7EEzVG-mRBK-17" value="&lt;div&gt;//* 发生错误时候的文件描述符&lt;br&gt;&lt;/div&gt;EventCallback errorCallback_" style="text;strokeColor=none;fillColor=none;align=left;verticalAlign=top;spacingLeft=4;spacingRight=4;overflow=hidden;rotatable=0;points=[[0,0.5],[1,0.5]];portConstraint=eastwest;whiteSpace=wrap;html=1;" parent="_6DTIwwcB7EEzVG-mRBK-5" vertex="1">
          <mxGeometry y="250" width="240" height="40" as="geometry" />
        </mxCell>
        <mxCell id="_6DTIwwcB7EEzVG-mRBK-7" value="" style="line;strokeWidth=1;fillColor=none;align=left;verticalAlign=middle;spacingTop=-1;spacingLeft=3;spacingRight=3;rotatable=0;labelPosition=right;points=[];portConstraint=eastwest;strokeColor=inherit;" parent="_6DTIwwcB7EEzVG-mRBK-5" vertex="1">
          <mxGeometry y="290" width="240" height="8" as="geometry" />
        </mxCell>
        <mxCell id="_6DTIwwcB7EEzVG-mRBK-8" value="&lt;div&gt;//* 构造函数，绑定一个 EventLoop 和 fd&lt;/div&gt;Channel(EventLoop* loop, int fd)" style="text;strokeColor=none;fillColor=none;align=left;verticalAlign=top;spacingLeft=4;spacingRight=4;overflow=hidden;rotatable=0;points=[[0,0.5],[1,0.5]];portConstraint=eastwest;whiteSpace=wrap;html=1;" parent="_6DTIwwcB7EEzVG-mRBK-5" vertex="1">
          <mxGeometry y="298" width="240" height="40" as="geometry" />
        </mxCell>
        <mxCell id="_6DTIwwcB7EEzVG-mRBK-19" value="void enableReading()" style="text;strokeColor=none;fillColor=none;align=left;verticalAlign=top;spacingLeft=4;spacingRight=4;overflow=hidden;rotatable=0;points=[[0,0.5],[1,0.5]];portConstraint=eastwest;whiteSpace=wrap;html=1;" parent="_6DTIwwcB7EEzVG-mRBK-5" vertex="1">
          <mxGeometry y="338" width="240" height="26" as="geometry" />
        </mxCell>
        <mxCell id="_6DTIwwcB7EEzVG-mRBK-21" value="void disableReading()" style="text;strokeColor=none;fillColor=none;align=left;verticalAlign=top;spacingLeft=4;spacingRight=4;overflow=hidden;rotatable=0;points=[[0,0.5],[1,0.5]];portConstraint=eastwest;whiteSpace=wrap;html=1;" parent="_6DTIwwcB7EEzVG-mRBK-5" vertex="1">
          <mxGeometry y="364" width="240" height="26" as="geometry" />
        </mxCell>
        <mxCell id="_6DTIwwcB7EEzVG-mRBK-20" value="void enableWriting()" style="text;strokeColor=none;fillColor=none;align=left;verticalAlign=top;spacingLeft=4;spacingRight=4;overflow=hidden;rotatable=0;points=[[0,0.5],[1,0.5]];portConstraint=eastwest;whiteSpace=wrap;html=1;" parent="_6DTIwwcB7EEzVG-mRBK-5" vertex="1">
          <mxGeometry y="390" width="240" height="26" as="geometry" />
        </mxCell>
        <mxCell id="_6DTIwwcB7EEzVG-mRBK-23" value="void disableWriting()" style="text;strokeColor=none;fillColor=none;align=left;verticalAlign=top;spacingLeft=4;spacingRight=4;overflow=hidden;rotatable=0;points=[[0,0.5],[1,0.5]];portConstraint=eastwest;whiteSpace=wrap;html=1;" parent="_6DTIwwcB7EEzVG-mRBK-5" vertex="1">
          <mxGeometry y="416" width="240" height="26" as="geometry" />
        </mxCell>
        <mxCell id="_6DTIwwcB7EEzVG-mRBK-22" value="void disableAll()" style="text;strokeColor=none;fillColor=none;align=left;verticalAlign=top;spacingLeft=4;spacingRight=4;overflow=hidden;rotatable=0;points=[[0,0.5],[1,0.5]];portConstraint=eastwest;whiteSpace=wrap;html=1;" parent="_6DTIwwcB7EEzVG-mRBK-5" vertex="1">
          <mxGeometry y="442" width="240" height="26" as="geometry" />
        </mxCell>
        <mxCell id="_6DTIwwcB7EEzVG-mRBK-18" value="" style="endArrow=classic;html=1;rounded=0;exitX=1;exitY=0.5;exitDx=0;exitDy=0;entryX=0;entryY=0.5;entryDx=0;entryDy=0;" parent="1" source="_6DTIwwcB7EEzVG-mRBK-1" target="_6DTIwwcB7EEzVG-mRBK-12" edge="1">
          <mxGeometry width="50" height="50" relative="1" as="geometry">
            <mxPoint x="1450" y="1820" as="sourcePoint" />
            <mxPoint x="1670" y="1950" as="targetPoint" />
          </mxGeometry>
        </mxCell>
        <mxCell id="_6DTIwwcB7EEzVG-mRBK-24" value="" style="endArrow=classic;html=1;rounded=0;exitX=1;exitY=0.5;exitDx=0;exitDy=0;entryX=0;entryY=0.5;entryDx=0;entryDy=0;" parent="1" source="_6DTIwwcB7EEzVG-mRBK-3" target="_6DTIwwcB7EEzVG-mRBK-19" edge="1">
          <mxGeometry width="50" height="50" relative="1" as="geometry">
            <mxPoint x="1440" y="1710" as="sourcePoint" />
            <mxPoint x="1680" y="2090" as="targetPoint" />
          </mxGeometry>
        </mxCell>
        <mxCell id="_6DTIwwcB7EEzVG-mRBK-25" value="&lt;div style=&quot;color: #abb2bf;background-color: #282c34;font-family: Consolas, &#39;Courier New&#39;, monospace;font-weight: normal;font-size: 14px;line-height: 19px;white-space: pre;&quot;&gt;&lt;div&gt;&lt;span style=&quot;color: #c678dd;&quot;&gt;//* sockfd：连接的 listenfd; peerAddr：对端的ip+port地址&lt;/span&gt;&lt;/div&gt;&lt;div&gt;&lt;span style=&quot;color: #c678dd;&quot;&gt;void&lt;/span&gt;&lt;span style=&quot;color: #abb2bf;&quot;&gt; &lt;/span&gt;&lt;span style=&quot;color: #e5c07b;&quot;&gt;Server&lt;/span&gt;&lt;span style=&quot;color: #abb2bf;&quot;&gt;::&lt;/span&gt;&lt;span style=&quot;color: #61afef;&quot;&gt;newConnection&lt;/span&gt;&lt;span style=&quot;color: #abb2bf;&quot;&gt;(&lt;/span&gt;&lt;span style=&quot;color: #c678dd;&quot;&gt;int&lt;/span&gt;&lt;span style=&quot;color: #abb2bf;&quot;&gt; &lt;/span&gt;&lt;span style=&quot;color: #abb2bf;&quot;&gt;sockfd&lt;/span&gt;&lt;span style=&quot;color: #abb2bf;&quot;&gt;, &lt;/span&gt;&lt;span style=&quot;color: #c678dd;&quot;&gt;const&lt;/span&gt;&lt;span style=&quot;color: #abb2bf;&quot;&gt; &lt;/span&gt;&lt;span style=&quot;color: #e5c07b;&quot;&gt;InetAddr&lt;/span&gt;&lt;span style=&quot;color: #c678dd;&quot;&gt;&amp;amp;&lt;/span&gt;&lt;span style=&quot;color: #abb2bf;&quot;&gt; &lt;/span&gt;&lt;span style=&quot;color: #abb2bf;&quot;&gt;peerAddr&lt;/span&gt;&lt;span style=&quot;color: #abb2bf;&quot;&gt;)&lt;/span&gt;&lt;/div&gt;&lt;/div&gt;" style="text;whiteSpace=wrap;html=1;" parent="1" vertex="1">
          <mxGeometry x="790" y="950" width="530" height="40" as="geometry" />
        </mxCell>
        <mxCell id="_6DTIwwcB7EEzVG-mRBK-26" value="Class Connection" style="swimlane;fontStyle=1;align=center;verticalAlign=top;childLayout=stackLayout;horizontal=1;startSize=26;horizontalStack=0;resizeParent=1;resizeParentMax=0;resizeLast=0;collapsible=1;marginBottom=0;whiteSpace=wrap;html=1;" parent="1" vertex="1">
          <mxGeometry x="1330" y="917" width="590" height="354" as="geometry" />
        </mxCell>
        <mxCell id="_6DTIwwcB7EEzVG-mRBK-57" value="StateE state_&lt;span style=&quot;white-space: pre;&quot;&gt;&#x9;&lt;/span&gt;&lt;span style=&quot;white-space: pre;&quot;&gt;&#x9;&lt;/span&gt;&lt;span style=&quot;white-space: pre;&quot;&gt;&#x9;&lt;/span&gt;&lt;span style=&quot;white-space: pre;&quot;&gt;&#x9;&lt;/span&gt;&lt;span style=&quot;white-space: pre;&quot;&gt;&#x9;&lt;/span&gt;&lt;span style=&quot;white-space: pre;&quot;&gt;&#x9;&lt;/span&gt;//* 客户端的连接状态" style="text;strokeColor=none;fillColor=none;align=left;verticalAlign=top;spacingLeft=4;spacingRight=4;overflow=hidden;rotatable=0;points=[[0,0.5],[1,0.5]];portConstraint=eastwest;whiteSpace=wrap;html=1;" parent="_6DTIwwcB7EEzVG-mRBK-26" vertex="1">
          <mxGeometry y="26" width="590" height="26" as="geometry" />
        </mxCell>
        <mxCell id="_6DTIwwcB7EEzVG-mRBK-27" value="unique_ptr&amp;lt;Socket&amp;gt; socket_&lt;span style=&quot;white-space: pre;&quot;&gt;&#x9;&lt;/span&gt;&lt;span style=&quot;white-space: pre;&quot;&gt;&#x9;&lt;/span&gt;&lt;span style=&quot;white-space: pre;&quot;&gt;&#x9;&lt;/span&gt;//* 封装 listenfd" style="text;strokeColor=none;fillColor=none;align=left;verticalAlign=top;spacingLeft=4;spacingRight=4;overflow=hidden;rotatable=0;points=[[0,0.5],[1,0.5]];portConstraint=eastwest;whiteSpace=wrap;html=1;" parent="_6DTIwwcB7EEzVG-mRBK-26" vertex="1">
          <mxGeometry y="52" width="590" height="26" as="geometry" />
        </mxCell>
        <mxCell id="_6DTIwwcB7EEzVG-mRBK-30" value="unique_ptr&amp;lt;Channel&amp;gt; channel_&lt;span style=&quot;white-space: pre;&quot;&gt;&#x9;&lt;/span&gt;&lt;span style=&quot;white-space: pre;&quot;&gt;&#x9;&lt;/span&gt;//* 封装客户端的 fd" style="text;strokeColor=none;fillColor=none;align=left;verticalAlign=top;spacingLeft=4;spacingRight=4;overflow=hidden;rotatable=0;points=[[0,0.5],[1,0.5]];portConstraint=eastwest;whiteSpace=wrap;html=1;" parent="_6DTIwwcB7EEzVG-mRBK-26" vertex="1">
          <mxGeometry y="78" width="590" height="26" as="geometry" />
        </mxCell>
        <mxCell id="_6DTIwwcB7EEzVG-mRBK-58" value="&lt;div&gt;//* 触发可读事件后，会调用这个接口处理应用层的逻辑&lt;br&gt;&lt;/div&gt;&lt;div&gt;function&amp;lt;void(const ConnectionPtr&amp;amp;,&amp;nbsp;&lt;span style=&quot;background-color: transparent;&quot;&gt;Buffer*)&amp;gt;&amp;nbsp;&lt;/span&gt;&lt;span style=&quot;background-color: transparent;&quot;&gt;messageCallback_&lt;span style=&quot;white-space: pre;&quot;&gt;&#x9;&lt;/span&gt;&lt;/span&gt;&lt;span style=&quot;background-color: transparent;&quot;&gt;&amp;nbsp;&lt;/span&gt;&lt;/div&gt;" style="text;strokeColor=none;fillColor=none;align=left;verticalAlign=top;spacingLeft=4;spacingRight=4;overflow=hidden;rotatable=0;points=[[0,0.5],[1,0.5]];portConstraint=eastwest;whiteSpace=wrap;html=1;" parent="_6DTIwwcB7EEzVG-mRBK-26" vertex="1">
          <mxGeometry y="104" width="590" height="46" as="geometry" />
        </mxCell>
        <mxCell id="_6DTIwwcB7EEzVG-mRBK-61" value="function&amp;lt;void(const ConnectionPtr&amp;amp;)&amp;nbsp;connectionCallback_&lt;span style=&quot;white-space: pre;&quot;&gt;&#x9;&lt;/span&gt;&lt;span style=&quot;white-space: pre;&quot;&gt;&#x9;&lt;/span&gt;//* 建立连接，启动 epoll 可读监听后调用" style="text;strokeColor=none;fillColor=none;align=left;verticalAlign=top;spacingLeft=4;spacingRight=4;overflow=hidden;rotatable=0;points=[[0,0.5],[1,0.5]];portConstraint=eastwest;whiteSpace=wrap;html=1;" parent="_6DTIwwcB7EEzVG-mRBK-26" vertex="1">
          <mxGeometry y="150" width="590" height="26" as="geometry" />
        </mxCell>
        <mxCell id="_6DTIwwcB7EEzVG-mRBK-63" value="function&amp;lt;void(const ConnectionPtr&amp;amp;)&amp;gt;&amp;nbsp;writeCompleteCallback_" style="text;strokeColor=none;fillColor=none;align=left;verticalAlign=top;spacingLeft=4;spacingRight=4;overflow=hidden;rotatable=0;points=[[0,0.5],[1,0.5]];portConstraint=eastwest;whiteSpace=wrap;html=1;" parent="_6DTIwwcB7EEzVG-mRBK-26" vertex="1">
          <mxGeometry y="176" width="590" height="26" as="geometry" />
        </mxCell>
        <mxCell id="_6DTIwwcB7EEzVG-mRBK-28" value="" style="line;strokeWidth=1;fillColor=none;align=left;verticalAlign=middle;spacingTop=-1;spacingLeft=3;spacingRight=3;rotatable=0;labelPosition=right;points=[];portConstraint=eastwest;strokeColor=inherit;" parent="_6DTIwwcB7EEzVG-mRBK-26" vertex="1">
          <mxGeometry y="202" width="590" height="8" as="geometry" />
        </mxCell>
        <mxCell id="_6DTIwwcB7EEzVG-mRBK-29" value="&lt;div&gt;//* loop：EventLoop 池中取出的次 EventLoop；sockfd：连接的linstenfd；peerAddr：客户端的 ip + port&lt;/div&gt;Connection(EventLoop* loop, int sockfd, const InetAddr&amp;amp; loaclAddr, const InetAddr&amp;amp; peerAddr);" style="text;strokeColor=none;fillColor=none;align=left;verticalAlign=top;spacingLeft=4;spacingRight=4;overflow=hidden;rotatable=0;points=[[0,0.5],[1,0.5]];portConstraint=eastwest;whiteSpace=wrap;html=1;" parent="_6DTIwwcB7EEzVG-mRBK-26" vertex="1">
          <mxGeometry y="210" width="590" height="40" as="geometry" />
        </mxCell>
        <mxCell id="_6DTIwwcB7EEzVG-mRBK-31" value="void handleRead()" style="text;strokeColor=none;fillColor=none;align=left;verticalAlign=top;spacingLeft=4;spacingRight=4;overflow=hidden;rotatable=0;points=[[0,0.5],[1,0.5]];portConstraint=eastwest;whiteSpace=wrap;html=1;" parent="_6DTIwwcB7EEzVG-mRBK-26" vertex="1">
          <mxGeometry y="250" width="590" height="26" as="geometry" />
        </mxCell>
        <mxCell id="_6DTIwwcB7EEzVG-mRBK-32" value="void handleWrite()" style="text;strokeColor=none;fillColor=none;align=left;verticalAlign=top;spacingLeft=4;spacingRight=4;overflow=hidden;rotatable=0;points=[[0,0.5],[1,0.5]];portConstraint=eastwest;whiteSpace=wrap;html=1;" parent="_6DTIwwcB7EEzVG-mRBK-26" vertex="1">
          <mxGeometry y="276" width="590" height="26" as="geometry" />
        </mxCell>
        <mxCell id="_6DTIwwcB7EEzVG-mRBK-34" value="void handleClose()" style="text;strokeColor=none;fillColor=none;align=left;verticalAlign=top;spacingLeft=4;spacingRight=4;overflow=hidden;rotatable=0;points=[[0,0.5],[1,0.5]];portConstraint=eastwest;whiteSpace=wrap;html=1;" parent="_6DTIwwcB7EEzVG-mRBK-26" vertex="1">
          <mxGeometry y="302" width="590" height="26" as="geometry" />
        </mxCell>
        <mxCell id="_6DTIwwcB7EEzVG-mRBK-33" value="void handleError()" style="text;strokeColor=none;fillColor=none;align=left;verticalAlign=top;spacingLeft=4;spacingRight=4;overflow=hidden;rotatable=0;points=[[0,0.5],[1,0.5]];portConstraint=eastwest;whiteSpace=wrap;html=1;" parent="_6DTIwwcB7EEzVG-mRBK-26" vertex="1">
          <mxGeometry y="328" width="590" height="26" as="geometry" />
        </mxCell>
        <mxCell id="_6DTIwwcB7EEzVG-mRBK-35" value="Class Channel" style="swimlane;fontStyle=1;align=center;verticalAlign=top;childLayout=stackLayout;horizontal=1;startSize=26;horizontalStack=0;resizeParent=1;resizeParentMax=0;resizeLast=0;collapsible=1;marginBottom=0;whiteSpace=wrap;html=1;" parent="1" vertex="1">
          <mxGeometry x="2090" y="880" width="290" height="468" as="geometry" />
        </mxCell>
        <mxCell id="_6DTIwwcB7EEzVG-mRBK-36" value="int fd_&lt;span style=&quot;white-space:pre&quot;&gt;&#x9;&#x9;&lt;/span&gt;//* 封装的文件描述符" style="text;strokeColor=none;fillColor=none;align=left;verticalAlign=top;spacingLeft=4;spacingRight=4;overflow=hidden;rotatable=0;points=[[0,0.5],[1,0.5]];portConstraint=eastwest;whiteSpace=wrap;html=1;" parent="_6DTIwwcB7EEzVG-mRBK-35" vertex="1">
          <mxGeometry y="26" width="290" height="26" as="geometry" />
        </mxCell>
        <mxCell id="_6DTIwwcB7EEzVG-mRBK-37" value="int events_&lt;span style=&quot;white-space:pre&quot;&gt;&#x9;&lt;/span&gt;//* 需要监听的事件类型" style="text;strokeColor=none;fillColor=none;align=left;verticalAlign=top;spacingLeft=4;spacingRight=4;overflow=hidden;rotatable=0;points=[[0,0.5],[1,0.5]];portConstraint=eastwest;whiteSpace=wrap;html=1;" parent="_6DTIwwcB7EEzVG-mRBK-35" vertex="1">
          <mxGeometry y="52" width="290" height="26" as="geometry" />
        </mxCell>
        <mxCell id="_6DTIwwcB7EEzVG-mRBK-38" value="int revents_;&lt;span style=&quot;white-space:pre&quot;&gt;&#x9;&lt;/span&gt;//* 触发返回的事件类型" style="text;strokeColor=none;fillColor=none;align=left;verticalAlign=top;spacingLeft=4;spacingRight=4;overflow=hidden;rotatable=0;points=[[0,0.5],[1,0.5]];portConstraint=eastwest;whiteSpace=wrap;html=1;" parent="_6DTIwwcB7EEzVG-mRBK-35" vertex="1">
          <mxGeometry y="78" width="290" height="26" as="geometry" />
        </mxCell>
        <mxCell id="_6DTIwwcB7EEzVG-mRBK-39" value="weak_ptr&amp;lt;void&amp;gt; tie_&lt;span style=&quot;white-space: pre;&quot;&gt;&#x9;&lt;/span&gt;//* 指向 Connection 对象" style="text;strokeColor=none;fillColor=none;align=left;verticalAlign=top;spacingLeft=4;spacingRight=4;overflow=hidden;rotatable=0;points=[[0,0.5],[1,0.5]];portConstraint=eastwest;whiteSpace=wrap;html=1;" parent="_6DTIwwcB7EEzVG-mRBK-35" vertex="1">
          <mxGeometry y="104" width="290" height="26" as="geometry" />
        </mxCell>
        <mxCell id="_6DTIwwcB7EEzVG-mRBK-40" value="&lt;div&gt;//* 可读事件的回调函数&lt;br&gt;&lt;/div&gt;EventCallback readCallback_" style="text;strokeColor=none;fillColor=none;align=left;verticalAlign=top;spacingLeft=4;spacingRight=4;overflow=hidden;rotatable=0;points=[[0,0.5],[1,0.5]];portConstraint=eastwest;whiteSpace=wrap;html=1;" parent="_6DTIwwcB7EEzVG-mRBK-35" vertex="1">
          <mxGeometry y="130" width="290" height="40" as="geometry" />
        </mxCell>
        <mxCell id="_6DTIwwcB7EEzVG-mRBK-41" value="&lt;div&gt;//* 触发可写事件的回调函数&lt;br&gt;&lt;/div&gt;EventCallback writeCallback_" style="text;strokeColor=none;fillColor=none;align=left;verticalAlign=top;spacingLeft=4;spacingRight=4;overflow=hidden;rotatable=0;points=[[0,0.5],[1,0.5]];portConstraint=eastwest;whiteSpace=wrap;html=1;" parent="_6DTIwwcB7EEzVG-mRBK-35" vertex="1">
          <mxGeometry y="170" width="290" height="40" as="geometry" />
        </mxCell>
        <mxCell id="_6DTIwwcB7EEzVG-mRBK-42" value="&lt;div&gt;//* 触发关闭文件描述符的回调函数&lt;br&gt;&lt;/div&gt;EventCallback closeCallback_" style="text;strokeColor=none;fillColor=none;align=left;verticalAlign=top;spacingLeft=4;spacingRight=4;overflow=hidden;rotatable=0;points=[[0,0.5],[1,0.5]];portConstraint=eastwest;whiteSpace=wrap;html=1;" parent="_6DTIwwcB7EEzVG-mRBK-35" vertex="1">
          <mxGeometry y="210" width="290" height="40" as="geometry" />
        </mxCell>
        <mxCell id="_6DTIwwcB7EEzVG-mRBK-43" value="&lt;div&gt;//* 发生错误时候的文件描述符&lt;br&gt;&lt;/div&gt;EventCallback errorCallback_" style="text;strokeColor=none;fillColor=none;align=left;verticalAlign=top;spacingLeft=4;spacingRight=4;overflow=hidden;rotatable=0;points=[[0,0.5],[1,0.5]];portConstraint=eastwest;whiteSpace=wrap;html=1;" parent="_6DTIwwcB7EEzVG-mRBK-35" vertex="1">
          <mxGeometry y="250" width="290" height="40" as="geometry" />
        </mxCell>
        <mxCell id="_6DTIwwcB7EEzVG-mRBK-44" value="" style="line;strokeWidth=1;fillColor=none;align=left;verticalAlign=middle;spacingTop=-1;spacingLeft=3;spacingRight=3;rotatable=0;labelPosition=right;points=[];portConstraint=eastwest;strokeColor=inherit;" parent="_6DTIwwcB7EEzVG-mRBK-35" vertex="1">
          <mxGeometry y="290" width="290" height="8" as="geometry" />
        </mxCell>
        <mxCell id="_6DTIwwcB7EEzVG-mRBK-45" value="&lt;div&gt;//* 构造函数，绑定一个 EventLoop 和 fd&lt;/div&gt;Channel(EventLoop* loop, int fd)" style="text;strokeColor=none;fillColor=none;align=left;verticalAlign=top;spacingLeft=4;spacingRight=4;overflow=hidden;rotatable=0;points=[[0,0.5],[1,0.5]];portConstraint=eastwest;whiteSpace=wrap;html=1;" parent="_6DTIwwcB7EEzVG-mRBK-35" vertex="1">
          <mxGeometry y="298" width="290" height="40" as="geometry" />
        </mxCell>
        <mxCell id="_6DTIwwcB7EEzVG-mRBK-46" value="void enableReading()" style="text;strokeColor=none;fillColor=none;align=left;verticalAlign=top;spacingLeft=4;spacingRight=4;overflow=hidden;rotatable=0;points=[[0,0.5],[1,0.5]];portConstraint=eastwest;whiteSpace=wrap;html=1;" parent="_6DTIwwcB7EEzVG-mRBK-35" vertex="1">
          <mxGeometry y="338" width="290" height="26" as="geometry" />
        </mxCell>
        <mxCell id="_6DTIwwcB7EEzVG-mRBK-47" value="void disableReading()" style="text;strokeColor=none;fillColor=none;align=left;verticalAlign=top;spacingLeft=4;spacingRight=4;overflow=hidden;rotatable=0;points=[[0,0.5],[1,0.5]];portConstraint=eastwest;whiteSpace=wrap;html=1;" parent="_6DTIwwcB7EEzVG-mRBK-35" vertex="1">
          <mxGeometry y="364" width="290" height="26" as="geometry" />
        </mxCell>
        <mxCell id="_6DTIwwcB7EEzVG-mRBK-48" value="void enableWriting()" style="text;strokeColor=none;fillColor=none;align=left;verticalAlign=top;spacingLeft=4;spacingRight=4;overflow=hidden;rotatable=0;points=[[0,0.5],[1,0.5]];portConstraint=eastwest;whiteSpace=wrap;html=1;" parent="_6DTIwwcB7EEzVG-mRBK-35" vertex="1">
          <mxGeometry y="390" width="290" height="26" as="geometry" />
        </mxCell>
        <mxCell id="_6DTIwwcB7EEzVG-mRBK-49" value="void disableWriting()" style="text;strokeColor=none;fillColor=none;align=left;verticalAlign=top;spacingLeft=4;spacingRight=4;overflow=hidden;rotatable=0;points=[[0,0.5],[1,0.5]];portConstraint=eastwest;whiteSpace=wrap;html=1;" parent="_6DTIwwcB7EEzVG-mRBK-35" vertex="1">
          <mxGeometry y="416" width="290" height="26" as="geometry" />
        </mxCell>
        <mxCell id="_6DTIwwcB7EEzVG-mRBK-50" value="void disableAll()" style="text;strokeColor=none;fillColor=none;align=left;verticalAlign=top;spacingLeft=4;spacingRight=4;overflow=hidden;rotatable=0;points=[[0,0.5],[1,0.5]];portConstraint=eastwest;whiteSpace=wrap;html=1;" parent="_6DTIwwcB7EEzVG-mRBK-35" vertex="1">
          <mxGeometry y="442" width="290" height="26" as="geometry" />
        </mxCell>
        <mxCell id="_6DTIwwcB7EEzVG-mRBK-53" value="" style="endArrow=classic;html=1;rounded=0;exitX=1;exitY=0.5;exitDx=0;exitDy=0;entryX=0;entryY=0.5;entryDx=0;entryDy=0;" parent="1" source="_6DTIwwcB7EEzVG-mRBK-31" target="_6DTIwwcB7EEzVG-mRBK-40" edge="1">
          <mxGeometry width="50" height="50" relative="1" as="geometry">
            <mxPoint x="1880" y="1122" as="sourcePoint" />
            <mxPoint x="1930" y="1072" as="targetPoint" />
          </mxGeometry>
        </mxCell>
        <mxCell id="_6DTIwwcB7EEzVG-mRBK-54" value="" style="endArrow=classic;html=1;rounded=0;exitX=1;exitY=0.5;exitDx=0;exitDy=0;entryX=0;entryY=0.39;entryDx=0;entryDy=0;entryPerimeter=0;" parent="1" source="_6DTIwwcB7EEzVG-mRBK-32" target="_6DTIwwcB7EEzVG-mRBK-41" edge="1">
          <mxGeometry width="50" height="50" relative="1" as="geometry">
            <mxPoint x="1980" y="1092" as="sourcePoint" />
            <mxPoint x="2030" y="1042" as="targetPoint" />
          </mxGeometry>
        </mxCell>
        <mxCell id="_6DTIwwcB7EEzVG-mRBK-55" value="" style="endArrow=classic;html=1;rounded=0;exitX=1;exitY=0.5;exitDx=0;exitDy=0;entryX=0;entryY=0.5;entryDx=0;entryDy=0;" parent="1" source="_6DTIwwcB7EEzVG-mRBK-34" target="_6DTIwwcB7EEzVG-mRBK-42" edge="1">
          <mxGeometry width="50" height="50" relative="1" as="geometry">
            <mxPoint x="1980" y="1092" as="sourcePoint" />
            <mxPoint x="2030" y="1042" as="targetPoint" />
          </mxGeometry>
        </mxCell>
        <mxCell id="_6DTIwwcB7EEzVG-mRBK-56" value="" style="endArrow=classic;html=1;rounded=0;exitX=1;exitY=0.5;exitDx=0;exitDy=0;entryX=0;entryY=0.5;entryDx=0;entryDy=0;" parent="1" source="_6DTIwwcB7EEzVG-mRBK-33" target="_6DTIwwcB7EEzVG-mRBK-43" edge="1">
          <mxGeometry width="50" height="50" relative="1" as="geometry">
            <mxPoint x="1980" y="1092" as="sourcePoint" />
            <mxPoint x="2030" y="1042" as="targetPoint" />
          </mxGeometry>
        </mxCell>
        <mxCell id="_6DTIwwcB7EEzVG-mRBK-59" value="" style="endArrow=classic;html=1;rounded=0;exitX=1;exitY=0.5;exitDx=0;exitDy=0;entryX=0;entryY=0.5;entryDx=0;entryDy=0;" parent="1" source="5fYn-dddMrxKIwdkff9x-13" target="_6DTIwwcB7EEzVG-mRBK-58" edge="1">
          <mxGeometry width="50" height="50" relative="1" as="geometry">
            <mxPoint x="960" y="1400" as="sourcePoint" />
            <mxPoint x="1160" y="1250" as="targetPoint" />
          </mxGeometry>
        </mxCell>
        <mxCell id="_6DTIwwcB7EEzVG-mRBK-62" value="" style="endArrow=classic;html=1;rounded=0;exitX=1;exitY=0.5;exitDx=0;exitDy=0;entryX=0;entryY=0.5;entryDx=0;entryDy=0;" parent="1" source="5fYn-dddMrxKIwdkff9x-16" target="_6DTIwwcB7EEzVG-mRBK-61" edge="1">
          <mxGeometry width="50" height="50" relative="1" as="geometry">
            <mxPoint x="1130" y="1450" as="sourcePoint" />
            <mxPoint x="1180" y="1400" as="targetPoint" />
          </mxGeometry>
        </mxCell>
        <mxCell id="_6DTIwwcB7EEzVG-mRBK-65" value="" style="endArrow=classic;html=1;rounded=0;exitX=1;exitY=0.5;exitDx=0;exitDy=0;entryX=0;entryY=0.5;entryDx=0;entryDy=0;" parent="1" source="_6DTIwwcB7EEzVG-mRBK-64" target="_6DTIwwcB7EEzVG-mRBK-63" edge="1">
          <mxGeometry width="50" height="50" relative="1" as="geometry">
            <mxPoint x="1120" y="1420" as="sourcePoint" />
            <mxPoint x="1240" y="1250" as="targetPoint" />
          </mxGeometry>
        </mxCell>
        <mxCell id="_6DTIwwcB7EEzVG-mRBK-66" value="" style="endArrow=classic;html=1;rounded=0;exitX=0;exitY=0.5;exitDx=0;exitDy=0;entryX=0.999;entryY=0.036;entryDx=0;entryDy=0;entryPerimeter=0;" parent="1" source="_6DTIwwcB7EEzVG-mRBK-39" target="_6DTIwwcB7EEzVG-mRBK-26" edge="1">
          <mxGeometry width="50" height="50" relative="1" as="geometry">
            <mxPoint x="1970" y="1070" as="sourcePoint" />
            <mxPoint x="1930" y="930" as="targetPoint" />
          </mxGeometry>
        </mxCell>
        <mxCell id="wEe0TQI-lBNl87yYCZ6w-1" value="allgroup" style="shape=table;startSize=30;container=1;collapsible=0;childLayout=tableLayout;fixedRows=1;rowLines=0;fontStyle=0;strokeColor=default;fontSize=16;" parent="1" vertex="1">
          <mxGeometry x="-2060" y="2830" width="180" height="120" as="geometry" />
        </mxCell>
        <mxCell id="wEe0TQI-lBNl87yYCZ6w-2" value="" style="shape=tableRow;horizontal=0;startSize=0;swimlaneHead=0;swimlaneBody=0;top=0;left=0;bottom=0;right=0;collapsible=0;dropTarget=0;fillColor=none;points=[[0,0.5],[1,0.5]];portConstraint=eastwest;strokeColor=inherit;fontSize=16;" parent="wEe0TQI-lBNl87yYCZ6w-1" vertex="1">
          <mxGeometry y="30" width="180" height="30" as="geometry" />
        </mxCell>
        <mxCell id="wEe0TQI-lBNl87yYCZ6w-3" value="1" style="shape=partialRectangle;html=1;whiteSpace=wrap;connectable=0;fillColor=none;top=0;left=0;bottom=0;right=0;overflow=hidden;pointerEvents=1;strokeColor=inherit;fontSize=16;" parent="wEe0TQI-lBNl87yYCZ6w-2" vertex="1">
          <mxGeometry width="40" height="30" as="geometry">
            <mxRectangle width="40" height="30" as="alternateBounds" />
          </mxGeometry>
        </mxCell>
        <mxCell id="wEe0TQI-lBNl87yYCZ6w-4" value="id" style="shape=partialRectangle;html=1;whiteSpace=wrap;connectable=0;fillColor=none;top=0;left=0;bottom=0;right=0;align=left;spacingLeft=6;overflow=hidden;strokeColor=inherit;fontSize=16;" parent="wEe0TQI-lBNl87yYCZ6w-2" vertex="1">
          <mxGeometry x="40" width="140" height="30" as="geometry">
            <mxRectangle width="140" height="30" as="alternateBounds" />
          </mxGeometry>
        </mxCell>
        <mxCell id="wEe0TQI-lBNl87yYCZ6w-5" value="" style="shape=tableRow;horizontal=0;startSize=0;swimlaneHead=0;swimlaneBody=0;top=0;left=0;bottom=0;right=0;collapsible=0;dropTarget=0;fillColor=none;points=[[0,0.5],[1,0.5]];portConstraint=eastwest;strokeColor=inherit;fontSize=16;" parent="wEe0TQI-lBNl87yYCZ6w-1" vertex="1">
          <mxGeometry y="60" width="180" height="30" as="geometry" />
        </mxCell>
        <mxCell id="wEe0TQI-lBNl87yYCZ6w-6" value="2" style="shape=partialRectangle;html=1;whiteSpace=wrap;connectable=0;fillColor=none;top=0;left=0;bottom=0;right=0;overflow=hidden;strokeColor=inherit;fontSize=16;" parent="wEe0TQI-lBNl87yYCZ6w-5" vertex="1">
          <mxGeometry width="40" height="30" as="geometry">
            <mxRectangle width="40" height="30" as="alternateBounds" />
          </mxGeometry>
        </mxCell>
        <mxCell id="wEe0TQI-lBNl87yYCZ6w-7" value="groupname" style="shape=partialRectangle;html=1;whiteSpace=wrap;connectable=0;fillColor=none;top=0;left=0;bottom=0;right=0;align=left;spacingLeft=6;overflow=hidden;strokeColor=inherit;fontSize=16;" parent="wEe0TQI-lBNl87yYCZ6w-5" vertex="1">
          <mxGeometry x="40" width="140" height="30" as="geometry">
            <mxRectangle width="140" height="30" as="alternateBounds" />
          </mxGeometry>
        </mxCell>
        <mxCell id="wEe0TQI-lBNl87yYCZ6w-8" value="" style="shape=tableRow;horizontal=0;startSize=0;swimlaneHead=0;swimlaneBody=0;top=0;left=0;bottom=0;right=0;collapsible=0;dropTarget=0;fillColor=none;points=[[0,0.5],[1,0.5]];portConstraint=eastwest;strokeColor=inherit;fontSize=16;" parent="wEe0TQI-lBNl87yYCZ6w-1" vertex="1">
          <mxGeometry y="90" width="180" height="30" as="geometry" />
        </mxCell>
        <mxCell id="wEe0TQI-lBNl87yYCZ6w-9" value="3" style="shape=partialRectangle;html=1;whiteSpace=wrap;connectable=0;fillColor=none;top=0;left=0;bottom=0;right=0;overflow=hidden;strokeColor=inherit;fontSize=16;" parent="wEe0TQI-lBNl87yYCZ6w-8" vertex="1">
          <mxGeometry width="40" height="30" as="geometry">
            <mxRectangle width="40" height="30" as="alternateBounds" />
          </mxGeometry>
        </mxCell>
        <mxCell id="wEe0TQI-lBNl87yYCZ6w-10" value="groupdesc" style="shape=partialRectangle;html=1;whiteSpace=wrap;connectable=0;fillColor=none;top=0;left=0;bottom=0;right=0;align=left;spacingLeft=6;overflow=hidden;strokeColor=inherit;fontSize=16;" parent="wEe0TQI-lBNl87yYCZ6w-8" vertex="1">
          <mxGeometry x="40" width="140" height="30" as="geometry">
            <mxRectangle width="140" height="30" as="alternateBounds" />
          </mxGeometry>
        </mxCell>
        <mxCell id="wEe0TQI-lBNl87yYCZ6w-20" value="friend" style="shape=table;startSize=30;container=1;collapsible=0;childLayout=tableLayout;fixedRows=1;rowLines=0;fontStyle=0;strokeColor=default;fontSize=16;" parent="1" vertex="1">
          <mxGeometry x="-1800" y="2830" width="180" height="90" as="geometry" />
        </mxCell>
        <mxCell id="wEe0TQI-lBNl87yYCZ6w-21" value="" style="shape=tableRow;horizontal=0;startSize=0;swimlaneHead=0;swimlaneBody=0;top=0;left=0;bottom=0;right=0;collapsible=0;dropTarget=0;fillColor=none;points=[[0,0.5],[1,0.5]];portConstraint=eastwest;strokeColor=inherit;fontSize=16;" parent="wEe0TQI-lBNl87yYCZ6w-20" vertex="1">
          <mxGeometry y="30" width="180" height="30" as="geometry" />
        </mxCell>
        <mxCell id="wEe0TQI-lBNl87yYCZ6w-22" value="1" style="shape=partialRectangle;html=1;whiteSpace=wrap;connectable=0;fillColor=none;top=0;left=0;bottom=0;right=0;overflow=hidden;pointerEvents=1;strokeColor=inherit;fontSize=16;" parent="wEe0TQI-lBNl87yYCZ6w-21" vertex="1">
          <mxGeometry width="40" height="30" as="geometry">
            <mxRectangle width="40" height="30" as="alternateBounds" />
          </mxGeometry>
        </mxCell>
        <mxCell id="wEe0TQI-lBNl87yYCZ6w-23" value="userid" style="shape=partialRectangle;html=1;whiteSpace=wrap;connectable=0;fillColor=none;top=0;left=0;bottom=0;right=0;align=left;spacingLeft=6;overflow=hidden;strokeColor=inherit;fontSize=16;" parent="wEe0TQI-lBNl87yYCZ6w-21" vertex="1">
          <mxGeometry x="40" width="140" height="30" as="geometry">
            <mxRectangle width="140" height="30" as="alternateBounds" />
          </mxGeometry>
        </mxCell>
        <mxCell id="wEe0TQI-lBNl87yYCZ6w-24" value="" style="shape=tableRow;horizontal=0;startSize=0;swimlaneHead=0;swimlaneBody=0;top=0;left=0;bottom=0;right=0;collapsible=0;dropTarget=0;fillColor=none;points=[[0,0.5],[1,0.5]];portConstraint=eastwest;strokeColor=inherit;fontSize=16;" parent="wEe0TQI-lBNl87yYCZ6w-20" vertex="1">
          <mxGeometry y="60" width="180" height="30" as="geometry" />
        </mxCell>
        <mxCell id="wEe0TQI-lBNl87yYCZ6w-25" value="2" style="shape=partialRectangle;html=1;whiteSpace=wrap;connectable=0;fillColor=none;top=0;left=0;bottom=0;right=0;overflow=hidden;strokeColor=inherit;fontSize=16;" parent="wEe0TQI-lBNl87yYCZ6w-24" vertex="1">
          <mxGeometry width="40" height="30" as="geometry">
            <mxRectangle width="40" height="30" as="alternateBounds" />
          </mxGeometry>
        </mxCell>
        <mxCell id="wEe0TQI-lBNl87yYCZ6w-26" value="friendid" style="shape=partialRectangle;html=1;whiteSpace=wrap;connectable=0;fillColor=none;top=0;left=0;bottom=0;right=0;align=left;spacingLeft=6;overflow=hidden;strokeColor=inherit;fontSize=16;" parent="wEe0TQI-lBNl87yYCZ6w-24" vertex="1">
          <mxGeometry x="40" width="140" height="30" as="geometry">
            <mxRectangle width="140" height="30" as="alternateBounds" />
          </mxGeometry>
        </mxCell>
        <mxCell id="wEe0TQI-lBNl87yYCZ6w-30" value="groupuser" style="shape=table;startSize=30;container=1;collapsible=0;childLayout=tableLayout;fixedRows=1;rowLines=0;fontStyle=0;strokeColor=default;fontSize=16;" parent="1" vertex="1">
          <mxGeometry x="-1560" y="2830" width="180" height="120" as="geometry" />
        </mxCell>
        <mxCell id="wEe0TQI-lBNl87yYCZ6w-31" value="" style="shape=tableRow;horizontal=0;startSize=0;swimlaneHead=0;swimlaneBody=0;top=0;left=0;bottom=0;right=0;collapsible=0;dropTarget=0;fillColor=none;points=[[0,0.5],[1,0.5]];portConstraint=eastwest;strokeColor=inherit;fontSize=16;" parent="wEe0TQI-lBNl87yYCZ6w-30" vertex="1">
          <mxGeometry y="30" width="180" height="30" as="geometry" />
        </mxCell>
        <mxCell id="wEe0TQI-lBNl87yYCZ6w-32" value="1" style="shape=partialRectangle;html=1;whiteSpace=wrap;connectable=0;fillColor=none;top=0;left=0;bottom=0;right=0;overflow=hidden;pointerEvents=1;strokeColor=inherit;fontSize=16;" parent="wEe0TQI-lBNl87yYCZ6w-31" vertex="1">
          <mxGeometry width="40" height="30" as="geometry">
            <mxRectangle width="40" height="30" as="alternateBounds" />
          </mxGeometry>
        </mxCell>
        <mxCell id="wEe0TQI-lBNl87yYCZ6w-33" value="groupid" style="shape=partialRectangle;html=1;whiteSpace=wrap;connectable=0;fillColor=none;top=0;left=0;bottom=0;right=0;align=left;spacingLeft=6;overflow=hidden;strokeColor=inherit;fontSize=16;" parent="wEe0TQI-lBNl87yYCZ6w-31" vertex="1">
          <mxGeometry x="40" width="140" height="30" as="geometry">
            <mxRectangle width="140" height="30" as="alternateBounds" />
          </mxGeometry>
        </mxCell>
        <mxCell id="wEe0TQI-lBNl87yYCZ6w-34" value="" style="shape=tableRow;horizontal=0;startSize=0;swimlaneHead=0;swimlaneBody=0;top=0;left=0;bottom=0;right=0;collapsible=0;dropTarget=0;fillColor=none;points=[[0,0.5],[1,0.5]];portConstraint=eastwest;strokeColor=inherit;fontSize=16;" parent="wEe0TQI-lBNl87yYCZ6w-30" vertex="1">
          <mxGeometry y="60" width="180" height="30" as="geometry" />
        </mxCell>
        <mxCell id="wEe0TQI-lBNl87yYCZ6w-35" value="2" style="shape=partialRectangle;html=1;whiteSpace=wrap;connectable=0;fillColor=none;top=0;left=0;bottom=0;right=0;overflow=hidden;strokeColor=inherit;fontSize=16;" parent="wEe0TQI-lBNl87yYCZ6w-34" vertex="1">
          <mxGeometry width="40" height="30" as="geometry">
            <mxRectangle width="40" height="30" as="alternateBounds" />
          </mxGeometry>
        </mxCell>
        <mxCell id="wEe0TQI-lBNl87yYCZ6w-36" value="userid" style="shape=partialRectangle;html=1;whiteSpace=wrap;connectable=0;fillColor=none;top=0;left=0;bottom=0;right=0;align=left;spacingLeft=6;overflow=hidden;strokeColor=inherit;fontSize=16;" parent="wEe0TQI-lBNl87yYCZ6w-34" vertex="1">
          <mxGeometry x="40" width="140" height="30" as="geometry">
            <mxRectangle width="140" height="30" as="alternateBounds" />
          </mxGeometry>
        </mxCell>
        <mxCell id="wEe0TQI-lBNl87yYCZ6w-37" value="" style="shape=tableRow;horizontal=0;startSize=0;swimlaneHead=0;swimlaneBody=0;top=0;left=0;bottom=0;right=0;collapsible=0;dropTarget=0;fillColor=none;points=[[0,0.5],[1,0.5]];portConstraint=eastwest;strokeColor=inherit;fontSize=16;" parent="wEe0TQI-lBNl87yYCZ6w-30" vertex="1">
          <mxGeometry y="90" width="180" height="30" as="geometry" />
        </mxCell>
        <mxCell id="wEe0TQI-lBNl87yYCZ6w-38" value="3" style="shape=partialRectangle;html=1;whiteSpace=wrap;connectable=0;fillColor=none;top=0;left=0;bottom=0;right=0;overflow=hidden;strokeColor=inherit;fontSize=16;" parent="wEe0TQI-lBNl87yYCZ6w-37" vertex="1">
          <mxGeometry width="40" height="30" as="geometry">
            <mxRectangle width="40" height="30" as="alternateBounds" />
          </mxGeometry>
        </mxCell>
        <mxCell id="wEe0TQI-lBNl87yYCZ6w-39" value="grouprole" style="shape=partialRectangle;html=1;whiteSpace=wrap;connectable=0;fillColor=none;top=0;left=0;bottom=0;right=0;align=left;spacingLeft=6;overflow=hidden;strokeColor=inherit;fontSize=16;" parent="wEe0TQI-lBNl87yYCZ6w-37" vertex="1">
          <mxGeometry x="40" width="140" height="30" as="geometry">
            <mxRectangle width="140" height="30" as="alternateBounds" />
          </mxGeometry>
        </mxCell>
        <mxCell id="wEe0TQI-lBNl87yYCZ6w-40" value="offlinemessage" style="shape=table;startSize=30;container=1;collapsible=0;childLayout=tableLayout;fixedRows=1;rowLines=0;fontStyle=0;strokeColor=default;fontSize=16;" parent="1" vertex="1">
          <mxGeometry x="-1315" y="2830" width="180" height="90" as="geometry" />
        </mxCell>
        <mxCell id="wEe0TQI-lBNl87yYCZ6w-41" value="" style="shape=tableRow;horizontal=0;startSize=0;swimlaneHead=0;swimlaneBody=0;top=0;left=0;bottom=0;right=0;collapsible=0;dropTarget=0;fillColor=none;points=[[0,0.5],[1,0.5]];portConstraint=eastwest;strokeColor=inherit;fontSize=16;" parent="wEe0TQI-lBNl87yYCZ6w-40" vertex="1">
          <mxGeometry y="30" width="180" height="30" as="geometry" />
        </mxCell>
        <mxCell id="wEe0TQI-lBNl87yYCZ6w-42" value="1" style="shape=partialRectangle;html=1;whiteSpace=wrap;connectable=0;fillColor=none;top=0;left=0;bottom=0;right=0;overflow=hidden;pointerEvents=1;strokeColor=inherit;fontSize=16;" parent="wEe0TQI-lBNl87yYCZ6w-41" vertex="1">
          <mxGeometry width="40" height="30" as="geometry">
            <mxRectangle width="40" height="30" as="alternateBounds" />
          </mxGeometry>
        </mxCell>
        <mxCell id="wEe0TQI-lBNl87yYCZ6w-43" value="userid" style="shape=partialRectangle;html=1;whiteSpace=wrap;connectable=0;fillColor=none;top=0;left=0;bottom=0;right=0;align=left;spacingLeft=6;overflow=hidden;strokeColor=inherit;fontSize=16;" parent="wEe0TQI-lBNl87yYCZ6w-41" vertex="1">
          <mxGeometry x="40" width="140" height="30" as="geometry">
            <mxRectangle width="140" height="30" as="alternateBounds" />
          </mxGeometry>
        </mxCell>
        <mxCell id="wEe0TQI-lBNl87yYCZ6w-44" value="" style="shape=tableRow;horizontal=0;startSize=0;swimlaneHead=0;swimlaneBody=0;top=0;left=0;bottom=0;right=0;collapsible=0;dropTarget=0;fillColor=none;points=[[0,0.5],[1,0.5]];portConstraint=eastwest;strokeColor=inherit;fontSize=16;" parent="wEe0TQI-lBNl87yYCZ6w-40" vertex="1">
          <mxGeometry y="60" width="180" height="30" as="geometry" />
        </mxCell>
        <mxCell id="wEe0TQI-lBNl87yYCZ6w-45" value="2" style="shape=partialRectangle;html=1;whiteSpace=wrap;connectable=0;fillColor=none;top=0;left=0;bottom=0;right=0;overflow=hidden;strokeColor=inherit;fontSize=16;" parent="wEe0TQI-lBNl87yYCZ6w-44" vertex="1">
          <mxGeometry width="40" height="30" as="geometry">
            <mxRectangle width="40" height="30" as="alternateBounds" />
          </mxGeometry>
        </mxCell>
        <mxCell id="wEe0TQI-lBNl87yYCZ6w-46" value="message" style="shape=partialRectangle;html=1;whiteSpace=wrap;connectable=0;fillColor=none;top=0;left=0;bottom=0;right=0;align=left;spacingLeft=6;overflow=hidden;strokeColor=inherit;fontSize=16;" parent="wEe0TQI-lBNl87yYCZ6w-44" vertex="1">
          <mxGeometry x="40" width="140" height="30" as="geometry">
            <mxRectangle width="140" height="30" as="alternateBounds" />
          </mxGeometry>
        </mxCell>
        <mxCell id="wEe0TQI-lBNl87yYCZ6w-50" value="user" style="shape=table;startSize=30;container=1;collapsible=0;childLayout=tableLayout;fixedRows=1;rowLines=0;fontStyle=0;strokeColor=default;fontSize=16;" parent="1" vertex="1">
          <mxGeometry x="-1090" y="2830" width="180" height="150" as="geometry" />
        </mxCell>
        <mxCell id="wEe0TQI-lBNl87yYCZ6w-51" value="" style="shape=tableRow;horizontal=0;startSize=0;swimlaneHead=0;swimlaneBody=0;top=0;left=0;bottom=0;right=0;collapsible=0;dropTarget=0;fillColor=none;points=[[0,0.5],[1,0.5]];portConstraint=eastwest;strokeColor=inherit;fontSize=16;" parent="wEe0TQI-lBNl87yYCZ6w-50" vertex="1">
          <mxGeometry y="30" width="180" height="30" as="geometry" />
        </mxCell>
        <mxCell id="wEe0TQI-lBNl87yYCZ6w-52" value="1" style="shape=partialRectangle;html=1;whiteSpace=wrap;connectable=0;fillColor=none;top=0;left=0;bottom=0;right=0;overflow=hidden;pointerEvents=1;strokeColor=inherit;fontSize=16;" parent="wEe0TQI-lBNl87yYCZ6w-51" vertex="1">
          <mxGeometry width="40" height="30" as="geometry">
            <mxRectangle width="40" height="30" as="alternateBounds" />
          </mxGeometry>
        </mxCell>
        <mxCell id="wEe0TQI-lBNl87yYCZ6w-53" value="id" style="shape=partialRectangle;html=1;whiteSpace=wrap;connectable=0;fillColor=none;top=0;left=0;bottom=0;right=0;align=left;spacingLeft=6;overflow=hidden;strokeColor=inherit;fontSize=16;" parent="wEe0TQI-lBNl87yYCZ6w-51" vertex="1">
          <mxGeometry x="40" width="140" height="30" as="geometry">
            <mxRectangle width="140" height="30" as="alternateBounds" />
          </mxGeometry>
        </mxCell>
        <mxCell id="wEe0TQI-lBNl87yYCZ6w-54" value="" style="shape=tableRow;horizontal=0;startSize=0;swimlaneHead=0;swimlaneBody=0;top=0;left=0;bottom=0;right=0;collapsible=0;dropTarget=0;fillColor=none;points=[[0,0.5],[1,0.5]];portConstraint=eastwest;strokeColor=inherit;fontSize=16;" parent="wEe0TQI-lBNl87yYCZ6w-50" vertex="1">
          <mxGeometry y="60" width="180" height="30" as="geometry" />
        </mxCell>
        <mxCell id="wEe0TQI-lBNl87yYCZ6w-55" value="2" style="shape=partialRectangle;html=1;whiteSpace=wrap;connectable=0;fillColor=none;top=0;left=0;bottom=0;right=0;overflow=hidden;strokeColor=inherit;fontSize=16;" parent="wEe0TQI-lBNl87yYCZ6w-54" vertex="1">
          <mxGeometry width="40" height="30" as="geometry">
            <mxRectangle width="40" height="30" as="alternateBounds" />
          </mxGeometry>
        </mxCell>
        <mxCell id="wEe0TQI-lBNl87yYCZ6w-56" value="name" style="shape=partialRectangle;html=1;whiteSpace=wrap;connectable=0;fillColor=none;top=0;left=0;bottom=0;right=0;align=left;spacingLeft=6;overflow=hidden;strokeColor=inherit;fontSize=16;" parent="wEe0TQI-lBNl87yYCZ6w-54" vertex="1">
          <mxGeometry x="40" width="140" height="30" as="geometry">
            <mxRectangle width="140" height="30" as="alternateBounds" />
          </mxGeometry>
        </mxCell>
        <mxCell id="wEe0TQI-lBNl87yYCZ6w-57" value="" style="shape=tableRow;horizontal=0;startSize=0;swimlaneHead=0;swimlaneBody=0;top=0;left=0;bottom=0;right=0;collapsible=0;dropTarget=0;fillColor=none;points=[[0,0.5],[1,0.5]];portConstraint=eastwest;strokeColor=inherit;fontSize=16;" parent="wEe0TQI-lBNl87yYCZ6w-50" vertex="1">
          <mxGeometry y="90" width="180" height="30" as="geometry" />
        </mxCell>
        <mxCell id="wEe0TQI-lBNl87yYCZ6w-58" value="3" style="shape=partialRectangle;html=1;whiteSpace=wrap;connectable=0;fillColor=none;top=0;left=0;bottom=0;right=0;overflow=hidden;strokeColor=inherit;fontSize=16;" parent="wEe0TQI-lBNl87yYCZ6w-57" vertex="1">
          <mxGeometry width="40" height="30" as="geometry">
            <mxRectangle width="40" height="30" as="alternateBounds" />
          </mxGeometry>
        </mxCell>
        <mxCell id="wEe0TQI-lBNl87yYCZ6w-59" value="password" style="shape=partialRectangle;html=1;whiteSpace=wrap;connectable=0;fillColor=none;top=0;left=0;bottom=0;right=0;align=left;spacingLeft=6;overflow=hidden;strokeColor=inherit;fontSize=16;" parent="wEe0TQI-lBNl87yYCZ6w-57" vertex="1">
          <mxGeometry x="40" width="140" height="30" as="geometry">
            <mxRectangle width="140" height="30" as="alternateBounds" />
          </mxGeometry>
        </mxCell>
        <mxCell id="wEe0TQI-lBNl87yYCZ6w-60" value="" style="shape=tableRow;horizontal=0;startSize=0;swimlaneHead=0;swimlaneBody=0;top=0;left=0;bottom=0;right=0;collapsible=0;dropTarget=0;fillColor=none;points=[[0,0.5],[1,0.5]];portConstraint=eastwest;strokeColor=inherit;fontSize=16;" parent="wEe0TQI-lBNl87yYCZ6w-50" vertex="1">
          <mxGeometry y="120" width="180" height="30" as="geometry" />
        </mxCell>
        <mxCell id="wEe0TQI-lBNl87yYCZ6w-61" value="3" style="shape=partialRectangle;html=1;whiteSpace=wrap;connectable=0;fillColor=none;top=0;left=0;bottom=0;right=0;overflow=hidden;strokeColor=inherit;fontSize=16;" parent="wEe0TQI-lBNl87yYCZ6w-60" vertex="1">
          <mxGeometry width="40" height="30" as="geometry">
            <mxRectangle width="40" height="30" as="alternateBounds" />
          </mxGeometry>
        </mxCell>
        <mxCell id="wEe0TQI-lBNl87yYCZ6w-62" value="state" style="shape=partialRectangle;html=1;whiteSpace=wrap;connectable=0;fillColor=none;top=0;left=0;bottom=0;right=0;align=left;spacingLeft=6;overflow=hidden;strokeColor=inherit;fontSize=16;" parent="wEe0TQI-lBNl87yYCZ6w-60" vertex="1">
          <mxGeometry x="40" width="140" height="30" as="geometry">
            <mxRectangle width="140" height="30" as="alternateBounds" />
          </mxGeometry>
        </mxCell>
        <mxCell id="wEe0TQI-lBNl87yYCZ6w-63" value="数据库表设计" style="text;strokeColor=none;fillColor=none;html=1;fontSize=24;fontStyle=1;verticalAlign=middle;align=center;" parent="1" vertex="1">
          <mxGeometry x="-1690" y="2740" width="100" height="40" as="geometry" />
        </mxCell>
        <mxCell id="80qu3IoSOQkizysxYAwl-1" value="acceptor&lt;div&gt;建立一个新连接&lt;/div&gt;" style="rounded=0;whiteSpace=wrap;html=1;" vertex="1" parent="1">
          <mxGeometry x="490" y="1697.5" width="120" height="65" as="geometry" />
        </mxCell>
        <mxCell id="80qu3IoSOQkizysxYAwl-7" style="edgeStyle=orthogonalEdgeStyle;rounded=0;orthogonalLoop=1;jettySize=auto;html=1;" edge="1" parent="1" source="80qu3IoSOQkizysxYAwl-5">
          <mxGeometry relative="1" as="geometry">
            <mxPoint x="1170" y="1310" as="targetPoint" />
          </mxGeometry>
        </mxCell>
        <mxCell id="80qu3IoSOQkizysxYAwl-5" value="Acceptor 建立新连接，创建Connection 时设置的回调函数" style="text;html=1;align=center;verticalAlign=middle;whiteSpace=wrap;rounded=0;" vertex="1" parent="1">
          <mxGeometry x="1160" y="1390" width="130" height="30" as="geometry" />
        </mxCell>
        <mxCell id="80qu3IoSOQkizysxYAwl-6" style="edgeStyle=orthogonalEdgeStyle;rounded=0;orthogonalLoop=1;jettySize=auto;html=1;" edge="1" parent="1" target="80qu3IoSOQkizysxYAwl-5">
          <mxGeometry relative="1" as="geometry">
            <mxPoint x="1560" y="1720" as="sourcePoint" />
            <Array as="points">
              <mxPoint x="1560" y="1721" />
              <mxPoint x="1590" y="1721" />
              <mxPoint x="1590" y="1405" />
            </Array>
          </mxGeometry>
        </mxCell>
      </root>
    </mxGraphModel>
  </diagram>
</mxfile>
